<?xml version="1.0" encoding="utf-8"?>
<COLLADA xmlns="http://www.collada.org/2005/11/COLLADASchema" version="1.4.1" xmlns:xsi="http://www.w3.org/2001/XMLSchema-instance">
  <asset>
    <contributor>
      <author>Blender User</author>
      <authoring_tool>Blender 3.0.1</authoring_tool>
    </contributor>
    <created>2026-08-17T11:25:08</created>
    <modified>2026-08-17T11:25:08</modified>
    <unit name="meter" meter="1"/>
    <up_axis>Z_UP</up_axis>
  </asset>
  <library_cameras>
    <camera id="Camera-camera" name="Camera">
      <optics>
        <technique_common>
          <perspective>
            <xfov sid="xfov">39.59775</xfov>
            <aspect_ratio>1.777778</aspect_ratio>
            <znear sid="znear">0.1</znear>
            <zfar sid="zfar">100</zfar>
          </perspective>
        </technique_common>
      </optics>
      <extra>
        <technique profile="blender">
          <shiftx sid="shiftx" type="float">0</shiftx>
          <shifty sid="shifty" type="float">0</shifty>
          <dof_distance sid="dof_distance" type="float">10</dof_distance>
        </technique>
      </extra>
    </camera>
  </library_cameras>
  <library_lights>
    <light id="Light-light" name="Light">
      <technique_common>
        <point>
          <color sid="color">1000 1000 1000</color>
          <constant_attenuation>1</constant_attenuation>
          <linear_attenuation>0</linear_attenuation>
          <quadratic_attenuation>0.00111109</quadratic_attenuation>
        </point>
      </technique_common>
      <extra>
        <technique profile="blender">
          <type sid="type" type="int">0</type>
          <flag sid="flag" type="int">0</flag>
          <mode sid="mode" type="int">1</mode>
          <gamma sid="blender_gamma" type="float">1</gamma>
          <red sid="red" type="float">1</red>
          <green sid="green" type="float">1</green>
          <blue sid="blue" type="float">1</blue>
          <shadow_r sid="blender_shadow_r" type="float">0</shadow_r>
          <shadow_g sid="blender_shadow_g" type="float">0</shadow_g>
          <shadow_b sid="blender_shadow_b" type="float">0</shadow_b>
          <energy sid="blender_energy" type="float">1000</energy>
          <dist sid="blender_dist" type="float">29.99998</dist>
          <spotsize sid="spotsize" type="float">75</spotsize>
          <spotblend sid="spotblend" type="float">0.15</spotblend>
          <att1 sid="att1" type="float">0</att1>
          <att2 sid="att2" type="float">1</att2>
          <falloff_type sid="falloff_type" type="int">2</falloff_type>
          <clipsta sid="clipsta" type="float">0.04999995</clipsta>
          <clipend sid="clipend" type="float">30.002</clipend>
          <bias sid="bias" type="float">1</bias>
          <soft sid="soft" type="float">3</soft>
          <bufsize sid="bufsize" type="int">2880</bufsize>
          <samp sid="samp" type="int">3</samp>
          <buffers sid="buffers" type="int">1</buffers>
          <area_shape sid="area_shape" type="int">1</area_shape>
          <area_size sid="area_size" type="float">0.1</area_size>
          <area_sizey sid="area_sizey" type="float">0.1</area_sizey>
          <area_sizez sid="area_sizez" type="float">1</area_sizez>
        </technique>
      </extra>
    </light>
  </library_lights>
  <library_images/>
  <library_geometries>
    <geometry id="left_finger_prox_link-mesh" name="left_finger_prox_link">
      <mesh>
        <source id="left_finger_prox_link-mesh-positions">
          <float_array id="left_finger_prox_link-mesh-positions-array" count="387">0.005230247 0.002293944 0.01167523 0.004590392 -0.004624962 0.0115236 -0.02856278 0.003611564 0.009936213 0.004626035 -0.003832459 0.008431971 -0.00245583 -0.007127225 0.006486296 -0.01499283 -0.01071423 -0.002437114 -0.03151327 -0.01866132 0.004414081 -0.01476806 -0.01068174 -0.006051003 -0.03969138 -0.02338147 -0.001151204 -0.04050862 -0.02351009 0.001577615 -0.03628212 -0.02163803 -0.004520952 -0.03836137 -0.02281719 0.002960443 -0.0398696 -0.02349418 -0.007253766 -0.04076641 -0.02355867 -0.005160272 -0.03828978 -0.02267575 -0.005917906 -0.03788751 -0.02261167 -0.008549034 -0.03810179 -0.02270758 -0.002956032 -0.03219187 -0.01907157 -0.007864058 -0.04107284 -0.0233938 -0.003350675 -0.02915352 -0.01728761 -0.003532052 -0.02939647 -0.01744258 -0.006739795 -0.03145146 -0.01863586 -0.004609227 -0.03364753 -0.02004021 -0.006087422 -0.02237612 -0.0137763 -0.006978213 -0.02186322 -0.01349234 -0.00448364 -0.02490955 -0.01489758 -0.006852746 -0.02651631 -0.01578927 -0.0044142 -0.02693051 -0.01600962 -0.007308542 -0.02912646 -0.01724803 0.003150045 -0.02939134 -0.01748675 6.89039e-4 -0.03342688 -0.0198633 -1.3699e-4 -0.0314145 -0.01859039 -0.001443982 -0.03366035 -0.02009737 0.002726674 -0.03591996 -0.02141016 0.001612126 -0.03747725 -0.02234709 6.41497e-6 -0.03371775 -0.0200631 -0.003454029 -0.03550404 -0.02118498 -0.00146836 -0.03991007 -0.02347105 0.004509389 -0.04106926 -0.02353709 0.006379425 -0.04106378 -0.0236206 0.01128888 -0.0199598 -0.01267832 -0.004437208 -0.01796293 -0.01188838 -0.005815088 -0.01913118 -0.01218128 -0.008614957 -0.02492475 -0.01498162 0.004293143 -0.02693921 -0.01601266 0.002082884 -0.0268312 -0.01592999 0.004741966 -0.02183538 -0.01345372 0.001108527 -0.02457129 -0.01476538 4.12178e-4 -0.02676957 -0.01589089 -0.001426994 -0.02428424 -0.01472687 -0.003352642 -0.0377745 -0.02252733 0.006067454 -0.03638374 -0.02178674 0.007926106 -0.03267067 -0.01932436 0.008660435 -0.0291512 -0.01722359 0.006440758 -0.03581672 -0.0212509 0.004594206 -0.03925973 -0.02321302 0.007727742 -0.0124796 -0.009839832 -0.00421369 -0.01059842 -0.009371638 -0.006255805 -0.02056032 -0.01292777 0.004793286 -0.01743865 -0.01169729 0.001052379 -0.01988369 -0.01265996 0.002368807 -0.01698356 -0.01140463 -0.001455247 -0.01988875 -0.01268953 -6.4456e-4 -0.02181011 -0.01341527 -0.001479208 -0.01791942 -0.01176404 -0.002962708 -0.03340679 -0.01988703 0.006310284 -0.02766805 -0.01635849 0.009895563 -0.01189219 -0.009666383 0.001565217 -0.01019054 -0.009174942 0.005025029 -0.01523566 -0.01087117 0.001802206 -0.01192313 -0.009701907 -0.001288175 -0.01023143 -0.00927037 -0.003329455 -0.023081 -0.01415312 0.008642017 -0.02279561 -0.01396113 0.006065309 -0.02492225 -0.01490259 0.007226288 -0.02306038 -0.01413685 0.002913892 -0.004933357 -0.00778979 -0.006358027 -0.004994928 -0.00770384 -0.009516716 -0.007517158 -0.008416652 -0.008034169 -0.003135621 -0.007207632 -0.005840241 -0.00764507 -0.008482992 -0.005234122 -0.009849846 -0.00915718 -0.007342875 -0.009847521 -0.008825242 -0.005071163 -0.005044102 -0.007775425 0.002360641 -0.005353212 -0.007833719 -9.8568e-4 -0.008083581 -0.008564889 0.003144383 -0.005637705 -0.007918834 0.001011133 -0.002886772 -0.007230341 4.94775e-5 -0.008408427 -0.008686065 1.73477e-4 -0.009847462 -0.008824527 -5.71219e-4 -0.008332014 -0.008657693 -0.002941787 -0.004605352 -0.007651686 -0.003063201 -0.02006155 -0.01257556 0.007701992 -0.0176959 -0.01174503 0.006362378 -0.01757991 -0.01171302 0.003584563 -0.01508045 -0.01078051 0.006913065 -0.009787321 -0.008598804 0.0110594 -0.01250511 -0.009921848 0.007566571 -0.01208865 -0.009742259 0.004487693 -0.01545751 -0.01086407 0.004640519 -0.005051374 -0.00781697 0.008363127 -0.008146524 -0.008585572 0.006015241 -0.008512198 -0.008636057 0.009042501 -0.004894256 -0.007666051 0.006527245 -0.005572438 -0.007921934 0.004436254 0.004078388 0.00471127 -0.008134007 0.004166245 0.004529476 0.0082767 -0.04519701 -0.02014696 0.01162469 -0.04669499 -0.008195221 0.00740993 -0.0108872 0.0162664 0.0106908 -0.04667276 -0.008041679 0.0111652 -0.04488599 -0.02057242 -0.01178979 -1.87454e-4 0.004550337 0.01195514 -0.004785239 0.001227438 0.01181942 -0.001162111 -0.004938602 0.01184558 0.004553318 -0.00124228 0.01192092 -0.0134406 -0.01009666 -0.01040363 -0.02905356 0.003830015 -0.009673118 -0.03993844 -0.02335345 -0.01059359 -0.01136434 0.01648944 -0.008012294 -0.0449357 -0.01939439 -0.007208526 -0.04676091 -0.008102536 -0.01071792 -0.01081985 0.01622021 -0.01070314 0.005099952 0.002063035 -0.01169204 0.004719316 -0.00330168 -0.01151722 5.10151e-4 0.005083501 -0.01181876 -0.002664029 -0.004118382 -0.01157593 -0.004704296 1.70358e-4 -0.01168626 0.003932595 -0.005419611 -0.009928166</float_array>
          <technique_common>
            <accessor source="#left_finger_prox_link-mesh-positions-array" count="129" stride="3">
              <param name="X" type="float"/>
              <param name="Y" type="float"/>
              <param name="Z" type="float"/>
            </accessor>
          </technique_common>
        </source>
        <source id="left_finger_prox_link-mesh-normals">
          <float_array id="left_finger_prox_link-mesh-normals-array" count="774">-0.07413858 -0.03933322 0.996472 0.676389 -0.07860177 0.7323386 -0.0823999 -0.03508996 0.9959814 -0.07443279 0.04456353 0.9962299 -0.06285512 -0.004850268 0.9980109 0.5182092 -0.8538413 -0.04913538 0.1249053 0.05283451 0.990761 -0.06454944 0.0486111 0.9967299 0.1495363 0.2400733 0.9591683 0.05676555 -0.9979353 -0.03004884 0.4129133 -0.910461 0.02373862 0.5050216 -0.8629662 0.01557683 -0.4848881 -0.8741644 -0.026838 -0.4255651 -0.8984496 -0.1080872 -0.4208537 0.894176 -0.1527464 0.4301015 -0.9017176 0.04379653 0.2459256 -0.9692882 -0.00108534 0.5330983 -0.811157 -0.2404798 0.5300958 -0.8474836 -0.02775222 0.3581748 -0.933162 0.03032255 0.3553884 -0.9340521 0.03529781 0.5048382 -0.863207 0.003474354 0.4264134 -0.9044106 0.01460427 0.4569612 -0.8894568 0.007286965 0.2079666 -0.05019712 -0.9768471 0.4403927 -0.8978034 -0.001820385 0.3951748 -0.855389 0.3348829 0.2774124 -0.9607506 -8.4222e-4 -0.07766062 0.03144788 -0.9964838 0.4971488 -0.8675736 0.01261925 0.3410265 -0.9390198 -0.04407608 0.5136047 -0.8569095 -0.04377835 0.3977821 -0.9174205 0.01045447 0.5442009 -0.8388761 -0.01150375 0.2607599 -0.965393 0.004562199 0.5322366 -0.8465369 0.009977638 0.4531258 -0.8910835 0.02544605 0.5108713 -0.8596353 0.006136476 0.9617777 0.04787576 -0.2696138 0.05892914 -0.9982615 0.001265227 0.0960626 0.9952333 0.01681405 0.4823121 -0.8759596 -0.008361458 0.3353594 -0.9407971 -0.04934656 0.5350074 -0.8448381 0.003966391 0.9984856 0.05481159 -0.004737079 0.4341799 -0.9007799 -0.009133577 0.459652 -0.8879781 0.01465678 0.3693572 -0.9292756 0.00472033 0.6305907 -0.4507684 0.6317937 0.4703869 -0.8801816 0.06337791 -0.3820694 0.8926781 0.2390585 0.3498092 -0.9355853 -0.04809975 0.4592647 -0.8881676 -0.01530843 0.4427049 -0.8962941 0.02587497 0.1884665 -0.9819342 -0.01690602 0.5504536 -0.8348053 0.01005494 0.5185595 -0.8550416 1.04263e-5 0.8043602 0.1442145 -0.5763738 0.3364216 -0.941629 0.01246339 0.1622722 -0.9764005 0.142513 0.3733267 -0.9275777 0.01505738 0.5064554 -0.8622643 -0.001845002 0.4431911 -0.895724 -0.0355007 0.3959942 -0.9175773 -0.03521955 0.4115254 -0.9090946 -0.06476086 0.2077015 -0.9703533 0.1235901 0.5134783 -0.8580418 0.01022779 0.4346383 -0.8928413 0.1180005 0.4039633 -0.9146654 -0.01417499 0.3569325 -0.9340824 -0.009456932 0.3575491 -0.9336761 -0.02018976 0.2601658 -0.9655203 0.009194374 0.06994831 0.9626736 0.2614705 0.0145688 0.008765459 0.9998555 0.4181312 -0.9061223 -0.06409949 -0.1213669 0.66918 0.7331223 0.3169391 -0.9480577 0.02713632 -0.1031535 0.07175022 -0.9920743 0.3719994 -0.9281944 0.008475661 0.3066608 -0.9518188 -4.47e-4 0.0670827 9.71831e-4 0.997747 0.5171663 -0.855872 -0.004703819 0.2377163 -0.9712368 -0.01378685 0.5594659 -0.8285312 0.02311056 0.2481023 -0.9687195 0.005272328 0.1345137 -0.9805182 0.1431438 0.2724906 -0.962158 9.95437e-4 0.2897296 -0.9559792 -0.04648143 0.2551312 -0.9668535 0.01012432 0.2736981 -0.9617102 0.01424413 0.2500111 -0.9682315 -0.004722177 0.4943353 -0.8692435 0.006961822 0.2441484 -0.9697377 -8.0741e-4 -0.2555618 0.9659867 -0.03947067 0.240445 -0.9706369 -0.007098793 0.2633773 -0.9645788 -0.01484549 0.2605503 -0.9654573 -0.002400398 0.1096504 -0.9939702 1.62783e-4 0.7155013 -0.6986115 1.12876e-4 0.3419457 -0.939476 0.02140015 0.3018902 -0.9514544 0.05997586 0.3567784 -0.9327539 0.05176299 0.3202571 -0.9471831 -0.01672565 0.5130708 -0.8582682 -0.01158487 0.2325108 -0.9725214 0.01186835 0.329737 -0.9420634 -0.06156486 0.331322 -0.9384498 0.09766143 0.2547541 -0.9665002 -0.03126668 0.2586176 -0.9506905 0.1711859 0.3394945 -0.9405739 0.008023619 0.2961733 -0.953295 0.05924588 0.2396854 -0.9697588 -0.04603058 0.2696051 -0.9628294 0.0165112 0.4004483 -0.9018601 0.162141 -0.5770331 -0.8166284 -0.01229298 -0.07101446 -0.9973563 -0.01540625 0.318397 -0.9476188 0.02533882 0.2545206 -0.9670661 -0.001544713 -0.5487171 -0.8352822 -0.03483331 0.6092934 0.7098408 -0.3533943 0.6170849 0.7321391 0.2884073 0.3932811 -0.9190806 -0.0249195 0.9304627 -0.07683569 0.3582396 0.9475536 -0.05699062 0.3144746 0.9895097 -0.142274 -0.02507299 -0.9926427 -0.1205979 0.0108096 0.5845747 -0.8104279 0.03845983 -0.9998574 0.01019549 -0.0134679 0.07432162 0.05494868 0.9957193 0.4951274 -0.8688089 0.004481375 0.8354887 0.4919682 0.2447976 -0.5410609 0.8344922 0.1042873 0.3190556 -0.9476586 -0.01211863 0.07197594 -0.3686768 0.9267669 0.06180191 -0.1157668 0.9913519 -0.5423558 0.8395723 -0.03112208 -0.5259749 0.7064162 0.4736312 -0.07442939 -0.06101578 -0.9953579 0.0357815 -0.2540326 -0.9665336 -0.06100785 0.03785061 -0.9974194 0.2550993 0.349826 -0.9014135 0.3786174 -0.9255469 0.003447949 0.2542001 -0.9670815 0.01165121 9.77042e-4 0.08578652 -0.9963131 0.5350341 -0.8448101 0.005890786 -0.3606334 0.5978404 -0.7159123 -0.5588514 0.8063142 -0.1937595 -0.9881358 -0.1509895 0.02810525 0.01025164 -0.02084416 -0.9997302 -0.9689434 0.06094652 -0.2396543 0.3460816 0.9373099 -0.04096043 0.1910679 -0.6335211 -0.7497628 -0.6431108 -0.7657544 0.005369663 0.4016969 -0.9014058 -0.1615779 0.4777337 -0.878379 0.01486718 0.2566613 -0.9496293 0.1798037 -0.2803238 0.8225598 -0.4947869 -0.1426644 0.5673833 0.8110013 0.4171925 -0.8388981 0.3495718 0.4659122 -0.8814363 0.0774331 0.2516162 -0.9522373 0.1730133 0.367812 -0.9208807 0.1292023 0.4471849 -0.8943895 0.009658694 0.1513141 -0.9880318 -0.02995651 0.5107855 -0.8592453 0.0282104 0.09914171 -0.9950513 -0.00663197 0.07928973 -0.9963389 0.03197002 0.2143679 -0.9747967 -0.06178927 0.2674032 -0.9630813 0.03114628 0.2162953 -0.975088 0.04919248 0.2906162 -0.9566976 -0.01649326 0.2877993 -0.9576749 -0.005511701 0.2676877 -0.9635013 -0.002913534 0.2374963 -0.9713884 3.65477e-4 0.3055908 -0.9521158 0.009488046 0.4497197 -0.8928561 0.0236693 0.3162422 -0.9481399 -0.03196585 0.440337 -0.8969141 -0.04060202 0.357279 -0.9339401 -0.01037561 0.3977152 -0.9170738 -0.0282554 0.3349592 -0.9420853 0.01666873 0.5198149 -0.8538561 0.0268771 0.5025138 -0.864058 0.02972728 0.3928332 -0.9194592 0.01664352 0.387951 -0.921044 0.03423511 0.138973 -0.9889712 0.05121099 0.4912208 -0.8705358 0.0294919 0.4276105 -0.9039465 0.005487978 0.3926265 -0.919387 0.02392011 0.3395491 -0.9388706 -0.05682134 0.5049998 -0.8630092 0.01380294 0.5037641 -0.8638166 0.006528496 0.4825073 -0.8758889 -0.00233978 0.5256575 -0.8506612 -0.007734596 0.2409998 -0.9594832 -0.145983 0.4805893 -0.8760374 -0.03990805 0.5213657 -0.8533087 0.006497263 0.3806347 -0.9235422 -0.04676532 -0.4411051 0.8973712 0.0123015 0.5194872 -0.853084 -0.04879349 0.5672044 -0.8233083 -0.02104467 0.3185097 -0.9477862 -0.01590585 0.3470527 -0.9377481 0.01352828 0.3356578 -0.9419023 0.01241385 0.4219234 -0.9065058 0.01509881 -0.01220983 0.03872227 -0.9991755 0.2487732 -0.9685606 -0.001527249 -0.08948516 -0.04813778 -0.9948243 0.4322709 -0.9014872 -0.02151179 0.4101185 -0.9119801 -0.0097512 0.5031075 -0.864223 0.001236855 0.2535855 -0.967192 0.01529681 0.5125682 -0.8581785 -0.02834731 0.4394055 -0.8979594 0.02432966 0.9957031 -0.09181368 -0.01206696 0.4790709 -0.8776627 0.01411312 0.3902505 -0.9177621 0.07360321 0.5363379 -0.8439948 0.003798246 0.9992823 -0.007819354 -0.03706479 0.3502842 -0.9363439 -0.02368974 0.3373225 -0.9410926 -0.02362972 0.4353777 -0.8995955 0.03426957 0.4831563 -0.8753653 0.01719796 0.4341406 -0.8997472 0.0444619 0.3001875 -0.9538388 -0.008898496 0.506094 -0.8624778 -9.93798e-4 0.4034329 -0.9145966 -0.02747654 0.4240859 -0.9054359 0.01836049 0.3272312 -0.9444386 -0.0309121 0.4619829 -0.8868586 -0.007340908 0.4151722 -0.9096826 -0.01047617 -0.2460616 0.2511727 0.9361442 0.3388989 -0.9408214 -0.001639425 0.2804849 -0.2877672 -0.9157065 0.3702982 -0.9288743 0.008484959 0.2438507 -0.9544755 0.171795 0.08307772 0.03781545 0.9958254 0.4613434 -0.8871812 -0.00848788 0.5156704 -0.8567605 0.006765723 0.4926469 -0.8701699 0.01016169 0.2978693 -0.9538745 -0.03738033 0.3634968 -0.9306191 -0.04263985 0.4897983 -0.8717308 -0.01353168 0.2796561 -0.9585314 -0.05486404 0.2430219 -0.9699479 -0.01189082 0.3188149 -0.9476677 -0.01682567 0.30496 -0.9366713 -0.1721814 -0.7698242 -0.6294048 -0.1059273 0.6060922 0.7942219 0.04317361 0.4156844 -0.9091886 0.02413791 0.6858138 -0.7277672 0.003802895 0.5014021 -0.8651945 -0.005859613 0.3151889 -0.9488693 -0.01740717 0.3792157 -0.9252939 0.005178213 0.2502778 -0.968163 -0.004649877 0.5354146 -0.8445609 0.006946921 0.5343123 -0.8449984 -0.02209115 -0.4453371 0.8948742 0.0295785</float_array>
          <technique_common>
            <accessor source="#left_finger_prox_link-mesh-normals-array" count="258" stride="3">
              <param name="X" type="float"/>
              <param name="Y" type="float"/>
              <param name="Z" type="float"/>
            </accessor>
          </technique_common>
        </source>
        <vertices id="left_finger_prox_link-mesh-vertices">
          <input semantic="POSITION" source="#left_finger_prox_link-mesh-positions"/>
        </vertices>
        <triangles count="258">
          <input semantic="VERTEX" source="#left_finger_prox_link-mesh-vertices" offset="0"/>
          <input semantic="NORMAL" source="#left_finger_prox_link-mesh-normals" offset="1"/>
          <p>96 0 114 0 113 0 115 1 1 1 0 1 2 2 96 2 113 2 2 3 113 3 109 3 96 4 2 4 66 4 51 5 54 5 65 5 39 6 110 6 107 6 112 7 109 7 113 7 109 8 112 8 0 8 18 9 8 9 9 9 16 10 34 10 8 10 6 11 30 11 29 11 111 12 118 12 12 12 111 13 12 13 18 13 12 14 13 14 18 14 15 15 14 15 12 15 70 16 56 16 71 16 15 17 118 17 17 17 15 18 17 18 22 18 94 19 69 19 99 19 7 20 64 20 41 20 19 21 21 21 20 21 73 22 75 22 58 22 24 23 49 23 23 23 117 24 118 24 111 24 42 25 23 25 27 25 27 26 23 26 25 26 85 27 101 27 68 27 127 28 117 28 122 28 26 29 48 29 19 29 40 30 42 30 41 30 29 31 30 31 31 31 50 32 37 32 11 32 17 33 21 33 22 33 80 34 91 34 90 34 30 35 33 35 36 35 47 36 49 36 63 36 33 37 34 37 36 37 0 38 3 38 106 38 37 39 38 39 9 39 38 40 39 40 9 40 74 41 53 41 45 41 9 42 34 42 11 42 35 43 30 43 36 43 3 44 105 44 106 44 47 45 63 45 46 45 49 46 24 46 63 46 99 47 93 47 94 47 51 48 65 48 39 48 39 49 65 49 52 49 39 50 52 50 53 50 42 51 7 51 41 51 73 52 92 52 72 52 55 53 50 53 51 53 39 54 38 54 55 54 65 55 32 55 6 55 10 56 15 56 22 56 82 57 57 57 116 57 5 58 7 58 56 58 81 59 80 59 82 59 60 60 59 60 94 60 16 61 36 61 34 61 25 62 49 62 26 62 62 63 61 63 59 63 60 64 75 64 46 64 13 65 16 65 18 65 6 66 28 66 53 66 55 67 51 67 39 67 43 68 47 68 75 68 40 69 62 69 63 69 82 70 68 70 70 70 70 71 68 71 67 71 70 72 71 72 82 72 119 73 120 73 105 73 66 74 74 74 72 74 66 75 72 75 92 75 69 76 98 76 99 76 107 77 109 77 106 77 62 78 60 78 46 78 102 79 97 79 68 79 110 80 66 80 2 80 48 81 44 81 29 81 87 82 79 82 128 82 6 83 52 83 65 83 128 84 79 84 77 84 116 85 81 85 82 85 116 86 77 86 78 86 116 87 78 87 81 87 87 88 83 88 88 88 91 89 84 89 88 89 4 90 104 90 83 90 45 91 28 91 44 91 4 92 83 92 87 92 88 93 86 93 87 93 87 94 86 94 84 94 91 95 79 95 87 95 88 96 90 96 91 96 82 97 90 97 89 97 68 98 82 98 89 98 92 99 93 99 95 99 7 100 57 100 56 100 93 101 92 101 58 101 69 102 61 102 5 102 29 103 19 103 48 103 101 104 100 104 102 104 95 105 97 105 92 105 92 106 97 106 96 106 76 107 78 107 77 107 100 108 1 108 102 108 69 109 70 109 67 109 1 110 100 110 4 110 85 111 68 111 89 111 101 112 102 112 68 112 82 113 56 113 57 113 39 114 111 114 18 114 39 115 18 115 9 115 128 116 1 116 4 116 128 117 4 117 87 117 123 118 112 118 125 118 122 119 105 119 123 119 0 120 106 120 109 120 74 121 73 121 72 121 128 122 124 122 105 122 123 123 105 123 124 123 1 124 128 124 3 124 107 125 110 125 108 125 127 126 112 126 113 126 107 127 120 127 111 127 112 128 115 128 0 128 20 129 26 129 19 129 124 130 113 130 114 130 123 131 114 131 115 131 95 132 98 132 97 132 96 133 1 133 114 133 1 134 115 134 114 134 108 135 110 135 2 135 108 136 2 136 109 136 127 137 126 137 116 137 124 138 116 138 126 138 125 139 127 139 122 139 123 140 125 140 122 140 94 141 58 141 60 141 83 142 85 142 88 142 117 143 111 143 121 143 35 144 21 144 31 144 119 145 117 145 121 145 119 146 122 146 117 146 120 147 121 147 111 147 124 148 126 148 127 148 114 149 123 149 124 149 113 150 124 150 127 150 116 151 124 151 128 151 111 152 39 152 107 152 92 153 96 153 66 153 66 154 39 154 53 154 102 155 1 155 96 155 20 156 17 156 118 156 20 157 42 157 27 157 116 158 42 158 118 158 118 159 42 159 20 159 77 160 116 160 128 160 14 161 13 161 12 161 45 162 44 162 43 162 90 163 82 163 80 163 54 164 11 164 33 164 88 165 89 165 90 165 89 166 88 166 85 166 100 167 103 167 4 167 104 168 103 168 101 168 4 169 103 169 104 169 97 170 98 170 68 170 98 171 67 171 68 171 88 172 84 172 86 172 91 173 87 173 84 173 91 174 76 174 79 174 43 175 74 175 45 175 77 176 79 176 76 176 47 177 46 177 75 177 63 178 62 178 46 178 62 179 64 179 61 179 61 180 64 180 5 180 6 181 29 181 28 181 28 182 29 182 44 182 63 183 24 183 40 183 40 184 41 184 64 184 37 185 55 185 38 185 33 186 32 186 54 186 49 187 48 187 26 187 23 188 40 188 24 188 9 189 11 189 37 189 33 190 11 190 34 190 31 191 21 191 19 191 25 192 26 192 27 192 36 193 10 193 35 193 18 194 16 194 8 194 14 195 10 195 16 195 10 196 22 196 35 196 118 197 15 197 12 197 120 198 106 198 105 198 51 199 50 199 54 199 6 200 32 200 30 200 70 201 5 201 56 201 94 202 59 202 69 202 7 203 5 203 64 203 73 204 43 204 75 204 117 205 116 205 118 205 85 206 104 206 101 206 127 207 116 207 117 207 40 208 23 208 42 208 50 209 55 209 37 209 17 210 20 210 21 210 80 211 76 211 91 211 30 212 32 212 33 212 47 213 48 213 49 213 0 214 1 214 3 214 74 215 66 215 53 215 9 216 8 216 34 216 35 217 31 217 30 217 3 218 128 218 105 218 99 219 95 219 93 219 42 220 116 220 7 220 73 221 58 221 92 221 65 222 54 222 32 222 10 223 14 223 15 223 81 224 78 224 80 224 16 225 10 225 36 225 25 226 23 226 49 226 60 227 58 227 75 227 13 228 14 228 16 228 43 229 44 229 47 229 40 230 64 230 62 230 119 231 121 231 120 231 69 232 67 232 98 232 107 233 108 233 109 233 62 234 59 234 60 234 102 235 96 235 97 235 110 236 39 236 66 236 48 237 47 237 44 237 6 238 53 238 52 238 45 239 53 239 28 239 7 240 116 240 57 240 69 241 59 241 61 241 29 242 31 242 19 242 101 243 103 243 100 243 76 244 80 244 78 244 69 245 5 245 70 245 82 246 71 246 56 246 123 247 115 247 112 247 122 248 119 248 105 248 74 249 43 249 73 249 127 250 125 250 112 250 20 251 27 251 26 251 95 252 99 252 98 252 94 253 93 253 58 253 83 254 104 254 85 254 35 255 22 255 21 255 54 256 50 256 11 256 120 257 107 257 106 257</p>
        </triangles>
      </mesh>
    </geometry>
  </library_geometries>
  <library_visual_scenes>
    <visual_scene id="Scene" name="Scene">
      <node id="left_finger_prox_link" name="left_finger_prox_link" type="NODE">
        <matrix sid="transform">1 0 0 0 0 1 0 0 0 0 1 0 0 0 0 1</matrix>
        <instance_geometry url="#left_finger_prox_link-mesh" name="left_finger_prox_link"/>
      </node>
      <node id="Camera" name="Camera" type="NODE">
        <matrix sid="transform">0.6859207 -0.3240135 0.6515582 7.358891 0.7276763 0.3054208 -0.6141704 -6.925791 0 0.8953956 0.4452714 4.958309 0 0 0 1</matrix>
        <instance_camera url="#Camera-camera"/>
      </node>
      <node id="Light" name="Light" type="NODE">
        <matrix sid="transform">-0.2908646 -0.7711008 0.5663932 4.076245 0.9551712 -0.1998834 0.2183912 1.005454 -0.05518906 0.6045247 0.7946723 5.903862 0 0 0 1</matrix>
        <instance_light url="#Light-light"/>
      </node>
    </visual_scene>
  </library_visual_scenes>
  <scene>
    <instance_visual_scene url="#Scene"/>
  </scene>
</COLLADA>