<?xml version="1.0" encoding="utf-8"?>
<COLLADA xmlns="http://www.collada.org/2005/11/COLLADASchema" version="1.4.1" xmlns:xsi="http://www.w3.org/2001/XMLSchema-instance">
  <asset>
    <contributor>
      <author>Blender User</author>
      <authoring_tool>Blender 3.0.1</authoring_tool>
    </contributor>
    <created>2026-08-17T11:22:51</created>
    <modified>2026-08-17T11:22:51</modified>
    <unit name="meter" meter="1"/>
    <up_axis>Z_UP</up_axis>
  </asset>
  <library_cameras>
    <camera id="Camera-camera" name="Camera">
      <optics>
        <technique_common>
          <perspective>
            <xfov sid="xfov">39.59775</xfov>
            <aspect_ratio>1.777778</aspect_ratio>
            <znear sid="znear">0.1</znear>
            <zfar sid="zfar">100</zfar>
          </perspective>
        </technique_common>
      </optics>
      <extra>
        <technique profile="blender">
          <shiftx sid="shiftx" type="float">0</shiftx>
          <shifty sid="shifty" type="float">0</shifty>
          <dof_distance sid="dof_distance" type="float">10</dof_distance>
        </technique>
      </extra>
    </camera>
  </library_cameras>
  <library_lights>
    <light id="Light-light" name="Light">
      <technique_common>
        <point>
          <color sid="color">1000 1000 1000</color>
          <constant_attenuation>1</constant_attenuation>
          <linear_attenuation>0</linear_attenuation>
          <quadratic_attenuation>0.00111109</quadratic_attenuation>
        </point>
      </technique_common>
      <extra>
        <technique profile="blender">
          <type sid="type" type="int">0</type>
          <flag sid="flag" type="int">0</flag>
          <mode sid="mode" type="int">1</mode>
          <gamma sid="blender_gamma" type="float">1</gamma>
          <red sid="red" type="float">1</red>
          <green sid="green" type="float">1</green>
          <blue sid="blue" type="float">1</blue>
          <shadow_r sid="blender_shadow_r" type="float">0</shadow_r>
          <shadow_g sid="blender_shadow_g" type="float">0</shadow_g>
          <shadow_b sid="blender_shadow_b" type="float">0</shadow_b>
          <energy sid="blender_energy" type="float">1000</energy>
          <dist sid="blender_dist" type="float">29.99998</dist>
          <spotsize sid="spotsize" type="float">75</spotsize>
          <spotblend sid="spotblend" type="float">0.15</spotblend>
          <att1 sid="att1" type="float">0</att1>
          <att2 sid="att2" type="float">1</att2>
          <falloff_type sid="falloff_type" type="int">2</falloff_type>
          <clipsta sid="clipsta" type="float">0.04999995</clipsta>
          <clipend sid="clipend" type="float">30.002</clipend>
          <bias sid="bias" type="float">1</bias>
          <soft sid="soft" type="float">3</soft>
          <bufsize sid="bufsize" type="int">2880</bufsize>
          <samp sid="samp" type="int">3</samp>
          <buffers sid="buffers" type="int">1</buffers>
          <area_shape sid="area_shape" type="int">1</area_shape>
          <area_size sid="area_size" type="float">0.1</area_size>
          <area_sizey sid="area_sizey" type="float">0.1</area_sizey>
          <area_sizez sid="area_sizez" type="float">1</area_sizez>
        </technique>
      </extra>
    </light>
  </library_lights>
  <library_images/>
  <library_geometries>
    <geometry id="left_finger_dist_link-mesh" name="left_finger_dist_link">
      <mesh>
        <source id="left_finger_dist_link-mesh-positions">
          <float_array id="left_finger_dist_link-mesh-positions-array" count="396">-0.01099884 -0.006094574 -0.007969498 -0.01103466 -0.006117761 -0.004446327 -0.01101607 -0.006112039 -0.001871347 -0.01048654 -0.006110072 1.64063e-4 -0.01100391 -0.006124317 0.001905381 -0.01140981 -0.006085276 0.004422962 -0.007783532 -0.006080985 0.009879171 -0.01366883 -0.006067991 0.008759915 -0.01847243 -0.006639778 0.008648395 -0.01597511 -0.00611788 0.008398652 -0.01846534 -0.006238579 0.007561206 -0.01745808 -0.005955457 -0.01053273 -0.01236629 -0.006144702 -0.010136 -0.006647706 -0.006121873 -0.01014304 -0.03446745 -0.009304106 0.008597314 -0.03945082 -0.009933829 0.007326483 -0.03952801 -0.009938657 -0.00732398 -0.03453797 -0.009264945 -0.00858736 -0.008151412 -0.006221413 -0.00815171 -0.00839591 -0.00604254 -0.006503343 -0.003939151 -0.005756378 -0.006084978 -0.004658341 -0.00602132 -0.008430957 -0.005806684 -0.006021678 -0.006471872 -0.008326828 -0.006156086 -0.005281984 -0.008523464 -0.00608772 -0.003059327 -0.005905866 -0.006019175 -0.004085063 -0.004300177 -0.005860149 -0.002988994 -0.007872104 -0.006105244 -0.00148034 -0.0058043 -0.006073474 -4.00558e-4 -0.00807482 -0.006116092 9.62644e-4 -0.009273171 -0.006236314 0.003035545 -0.004553854 -0.005857646 -1.04044e-5 -0.003172695 -0.005507647 0.001759886 -0.005228459 -0.006009757 0.002467691 -0.006213128 -0.006091892 0.00476402 -0.008082509 -0.005971312 0.003355979 -0.008684217 -0.006106257 0.0059098 -0.004210889 -0.005880832 0.003343403 -0.003459692 -0.005497992 0.006284594 -0.004590868 -0.005931317 0.005982697 -0.007892727 -0.006121873 0.007470667 -0.0104475 -0.006158053 0.008807003 -0.00518006 -0.006102323 0.008834898 -0.03691381 -0.008303582 0.008184075 -0.03698045 -0.008274793 -0.008193075 -0.03199237 -0.008966624 0.008677959 -0.02947956 -0.008568584 0.008582651 -0.02950495 -0.008593618 -0.008508324 -0.02701109 -0.008079469 -0.008439898 -0.03199309 -0.00897783 -0.00867182 -0.02699095 -0.008080065 0.008375227 -0.023602 -0.007206559 0.002810299 -0.0131784 -0.006054937 0.00560671 -0.01297658 -0.006004989 0.001501321 -0.01151877 -0.006124854 0.007011353 -0.012277 -0.006210625 -0.001118481 -0.01352941 -0.005976617 -0.00349462 -0.01351034 -0.006049275 -0.007232069 -0.01224762 -0.006141781 -0.00742197 -0.01302105 -0.006115972 -0.005158662 -0.01885056 -0.006380379 -0.005887329 -0.01600843 -0.006208956 -0.008326828 -0.0160228 -0.006112515 -0.006701111 -0.01605707 -0.006095767 -0.003762483 -0.0141291 -0.006199657 -0.005544364 -0.0172342 -0.00632745 -0.004839539 -0.01860362 -0.006313502 -0.008182823 -0.02020663 -0.006677389 -0.006118416 -0.01848715 -0.006391763 -0.003803789 -0.02107155 -0.006693959 -0.003471851 -0.02258688 -0.007273793 -0.004541456 -0.02153927 -0.006971597 -0.007167994 -0.02365696 -0.007284164 -0.006009638 -0.02140146 -0.006930291 0.005511641 -0.02361714 -0.007396221 0.006545782 -0.02213817 -0.007120907 0.00407809 -0.01988029 -0.006587564 0.005642414 -0.01863366 -0.006332933 0.003725111 -0.01845675 -0.00644952 0.005995452 -0.02096897 -0.006807148 0.004102587 -0.0211758 -0.006767988 0.002284884 -0.02097433 -0.006764233 0.007102012 -0.01988852 -0.006610095 0.008641839 -0.01422691 -0.00623244 0.006435036 -0.01604473 -0.006197392 0.003629922 -0.01575785 -0.006045639 0.005915939 -0.01351517 -0.00610578 0.004766702 -0.0214529 -0.006913185 -0.001220643 -0.02215689 -0.00707519 0.001119554 -0.02314263 -0.007188856 -0.001690447 -0.01796513 -0.006357967 0.001508057 -0.01841044 -0.006373703 -4.05325e-4 -0.02010387 -0.0066275 -2.77714e-5 -0.01858139 -0.006332635 -0.00207436 -0.01432293 -0.006161034 2.06742e-5 -0.01444524 -0.006185114 -0.002708077 -0.01602274 -0.006108105 -7.00928e-4 -0.01536577 -0.00609982 0.002349972 -0.00105971 1.51204e-4 0.01170301 -0.03439122 -0.008993744 0.01061356 -0.01764738 -0.005832493 0.01055216 -0.001936078 -0.004700005 0.01164799 -0.003132462 -0.00527203 -0.01157259 -0.01017862 -0.005463063 0.01135128 -0.04275792 -0.005096375 0.008485376 -0.04293179 -0.01006585 -0.006784498 -0.04292929 -0.01005041 0.006834149 -0.03456109 -7.84379e-4 0.01076912 -0.03970706 -0.009624719 0.009709894 -0.03795319 -0.008036494 -0.01020848 -0.03716945 -0.007688939 0.01040911 -0.001348018 -0.002728998 -0.01168364 -0.03440403 -0.008940219 -0.01062023 -0.03445196 -9.43577e-4 -0.01083403 -0.01018226 -0.005512595 -0.01133126 -0.03970897 -0.00963664 -0.009712815 -0.04273939 -0.004951477 -0.008387029 -0.00181353 0.008286476 0.006498992 -0.00389266 0.009863913 -0.007321298 -0.002478003 0.008075296 0.007168054 -0.00393933 0.009876668 0.007317841 -0.002449691 0.007945656 -0.00698173 -0.002645254 0.009084582 0.01107221 -0.006233751 0.009906172 0.01115894 -0.02216786 0.002701163 0.01022565 3.68322e-5 -7.75435e-5 0.01177555 7.52426e-5 2.58134e-6 -0.01185542 -0.001704216 9.38442e-4 -0.0116353 -0.002860903 0.009406626 -0.01122552 -0.007636129 0.009536504 -0.01099228 -0.02297961 0.002397358 -0.01017683 -0.001691997 0.008388042 -0.0064978</float_array>
          <technique_common>
            <accessor source="#left_finger_dist_link-mesh-positions-array" count="132" stride="3">
              <param name="X" type="float"/>
              <param name="Y" type="float"/>
              <param name="Z" type="float"/>
            </accessor>
          </technique_common>
        </source>
        <source id="left_finger_dist_link-mesh-normals">
          <float_array id="left_finger_dist_link-mesh-normals-array" count="780">-0.8616603 0.4778947 0.170758 0.1595305 -0.9264728 -0.3408787 0.2173653 -0.9760903 -3.76541e-4 0.3499512 -0.9362044 0.03248679 0.1565017 -0.9876769 0.001214861 0.1289824 -0.9808233 0.1461141 0.1605983 -0.9694401 0.1854568 -0.2791463 0.9602111 -0.008486092 -0.4125195 0.9108834 0.01091396 0.1431956 -0.5887191 -0.7955532 0.1830879 -0.9520956 -0.2449341 0.1059215 -0.9829888 -0.1500451 0.2490809 -0.9684826 -3.33588e-4 -0.02615875 -0.9995673 -0.01345187 -0.07532602 -0.9970332 -0.01583832 0.2176116 -0.9692448 -0.1149336 0.7989729 0.6013636 0.00202322 -0.03411448 -0.9993734 -0.00943762 -0.02792334 -0.9996085 -0.001817286 0.1955657 -0.9605622 -0.1976726 -0.06536555 -0.9976994 0.01798433 -0.2175118 -0.9758816 0.01853621 0.04347312 -0.9972786 0.05954432 -0.06756097 -0.9977048 0.004574298 -0.07242482 -0.997365 0.004228949 -0.8537882 0.4278404 -0.2966453 0.2107862 -0.9775229 -0.00427699 0.005346 -0.9981598 0.06040388 0.1783726 -0.9817884 -0.06538122 6.21274e-4 -0.9998835 -0.01525729 0.09008789 -0.9959212 -0.005035042 0.2874342 -0.9575899 0.02007991 -0.07019782 -0.9973515 0.01903253 0.1017758 -0.9947978 -0.004364192 -0.4671036 0.8841743 0.007081449 0.2017565 -0.9781242 -0.05067014 0.2147958 -0.9766443 -0.005361557 -0.2976544 -0.8131163 0.5002439 0.1213166 -0.9922583 -0.02656579 -0.02461665 -0.9993849 0.02497911 0.2987785 -0.9499077 0.09168922 -0.9993928 0.03483438 -8.0008e-4 -0.04901731 -0.9381427 -0.3427618 0.2201991 -0.9753354 0.01526975 0.2257915 -0.9741494 0.007163107 0.1835401 -0.9817849 -0.04910629 0.1726889 -0.9837445 -0.04924947 -0.09988725 -0.9783185 0.1814265 0.2598605 -0.9643324 -0.05035531 0.2229173 -0.9736974 0.0471304 0.2241067 -0.9736822 0.04146254 0.2592954 -0.965786 -0.00482732 0.0627827 -0.9890429 0.1336131 0.1109877 -0.9920338 -0.05958902 0.1921283 -0.9804276 -0.04299467 -0.715632 0.5526011 0.4272035 0.2025376 -0.9791692 0.01435905 0.316149 -0.9486045 0.01412415 0.288321 -0.9561764 0.05097067 0.3039753 -0.9524545 0.02072376 0.2147889 -0.9765033 0.01751965 0.04657107 -0.9986464 -0.02316111 1.85979e-4 -0.9999669 -0.008134543 0.00684005 -0.9962513 -0.08623558 -0.05534869 -0.9981636 -0.0246191 0.116731 -0.9931313 0.008009493 0.0975303 -0.9952142 0.006041646 0.0713548 -0.9974271 0.006922066 0.06566178 -0.9808241 -0.183501 -0.08328777 -0.990359 -0.1106904 -0.04908525 -0.9987815 0.005124986 0.139645 -0.9894462 -0.03867179 0.142684 -0.9894514 -0.02504605 0.1211831 -0.9918031 0.04051232 0.2305343 -0.9728587 -0.01999711 0.1790664 -0.9816708 -0.06525242 0.01550072 -0.9975752 -0.06784874 0.05812764 -0.9969417 0.05223637 0.1377325 -0.99025 -0.02085268 0.2208828 -0.9752995 -0.001296997 -0.03553563 -0.9993143 0.01040482 0.1061671 -0.9937198 -0.03534775 -0.05486387 0.02657085 0.9981403 0.9967653 0.07639777 -0.02494901 -0.0606895 0.03273785 -0.9976197 -0.03552448 -0.004916727 0.9993568 0.07296198 -0.9967466 0.03424662 0.006688594 -0.9940363 0.1088448 0.03956538 -0.9986307 0.03422528 0.0647968 -0.02628082 -0.9975523 0.3091613 -0.7615426 -0.5696246 -0.03552144 -0.9993152 0.01037222 0.2052166 -0.9740914 -0.09503805 -0.08170086 0.9966471 -0.004449009 0.05662387 -0.9983701 -0.007139623 0.1756197 -0.9734413 -0.1468668 0.2911708 -0.9566693 0.001887917 0.2217855 -0.9748963 0.01971477 0.405372 -0.9139088 -0.02107739 -0.001005232 -0.9999892 -0.004537642 -0.041911 -0.9950465 -0.09014415 -0.1218948 -0.9824548 -0.1411527 0.2015199 -0.9776574 0.0597971 0.1505162 -0.9796435 0.1328294 0.1740218 -0.984655 -0.01307934 -0.05548143 -0.9984563 0.002616822 0.0109511 -0.9976291 0.06794393 -0.02094686 -0.9981151 -0.0576865 0.1229107 -0.9374853 0.3255984 0.3731062 -0.9272377 0.03196817 0.01077711 -0.9999397 0.002141833 0.372541 -0.9276624 0.02560508 0.6128535 -0.7901037 -0.01211237 0.38868 -0.9209884 0.0266146 0.1964066 -0.9761942 0.0920301 0.4401865 -0.8977888 -0.01453679 0.06428658 -0.8785187 0.4733629 0.2230564 -0.97363 0.04785925 -0.03083038 -0.9633653 0.2664151 0.03216242 -0.9872617 0.1558204 -0.01830691 -0.9679152 0.2506093 -0.5248378 0.8002926 0.2899607 0.1810325 -0.9542298 0.2380605 0.2017158 -0.9699971 0.1357079 -0.08298295 -0.02060014 0.996338 -0.3028404 0.05327546 0.9515511 -0.2985328 0.06312352 0.9523096 -0.7537634 -0.6571328 0.004187822 -0.8591509 -0.5117222 3.99758e-4 0.1329835 -0.9911177 0.001098155 0.1304491 -0.9914549 5.96729e-4 -0.003231883 0.03652393 0.9993276 -0.632004 -0.2252946 0.7414939 -0.2364938 -0.9716327 -7.44631e-4 0.9880192 -0.07579612 0.1344359 -0.2462853 -0.969188 0.004270553 -0.2506623 -0.9680745 -6.80641e-4 -0.9523979 -0.2849778 -0.1082865 -0.5130218 -0.8583757 1.49168e-4 -0.4293021 -0.8900642 0.1532498 -0.8607413 -0.5073668 0.04127335 0.5688763 -0.8055711 0.1656352 0.7673962 -0.6411619 -0.003833889 0.7116714 -0.7023479 -0.01521331 0.6441185 -0.7512949 -0.1437614 -0.03352189 -0.02010172 -0.9992358 0.02355176 -0.9997026 -0.006336688 0.01313948 -0.8733609 -0.4868966 -0.03850668 -0.9991025 0.01764965 0.1548382 -0.9647884 -0.2126231 0.003132283 -0.8863549 -0.462996 0.1709958 -0.9649993 -0.198839 -0.3141376 0.07157766 -0.9466754 -0.3212094 0.0596913 -0.9451252 -0.122041 -0.02725648 -0.9921508 0.05483013 -0.9984902 0.003334045 -0.6426866 -0.2069521 -0.7376482 0.05856394 -0.9981338 0.01729881 -0.001365303 -0.9998539 0.01704293 0.3537028 -0.9352035 0.01699197 9.56028e-4 -0.9999448 -0.01047086 0.2236917 -0.9283878 0.2967459 -0.02817237 -0.9994675 -0.01646268 -0.02835839 -0.9984508 -0.04787433 0.2141259 -0.9753488 -0.05333739 -0.06152403 -0.9980903 0.005553603 0.003741919 -0.9999134 -0.01261919 0.01695197 -0.9998518 -0.003046691 0.1988579 -0.980028 -8.6287e-4 0.2023888 0.9789211 0.0274313 0.01880276 -0.999646 -0.01882886 0.1121889 -0.9934812 -0.02021944 0.1084595 -0.9939548 -0.01704472 -0.00443083 -0.9999414 0.009885191 -0.03773069 -0.9940423 0.1022567 0.05326509 -0.9982068 0.02731698 0.07529836 -0.9949824 -0.06588095 0.03753149 -0.9992953 -5.75687e-4 0.2177825 -0.9759929 -0.002927541 0.03239232 -0.9903042 -0.1350865 0.1659744 -0.9859595 -0.01834177 0.7802694 0.6107732 0.1346697 0.02162015 0.9936226 -0.1106656 0.7646263 0.6311414 -0.1304116 0.2242891 0.9662716 0.1265447 0.2019289 -0.9794002 -2.77509e-4 -5.13024e-4 -0.9998348 -0.01817506 -0.01362246 0.999782 -0.01582336 -0.08601802 0.996293 -0.001141965 0.04188662 0.07777297 0.9960909 0.5365754 0.4894446 0.6874088 0.9846447 0.1745462 -0.002952933 0.05018228 -0.9972181 -0.05511707 0.1909199 0.5570648 -0.8082255 0.9893159 0.1374766 -0.04852312 0.02250021 -0.9996195 0.01595669 0.1391268 -0.9888498 0.05310201 -0.2104061 -0.9699652 0.1220518 0.8868321 -0.4620918 -1.25327e-4 -0.1221273 0.001212179 -0.9925137 -0.0476076 0.04179096 -0.9979916 0.120275 -0.9921891 0.03308731 -0.04268783 0.009013473 -0.9990478 -0.1073342 -0.02860975 -0.9938113 -0.5052146 0.8629914 0.002023041 -0.3113465 0.9502506 -0.00933218 0.8176845 -0.5749871 -0.027965 -0.1054959 -0.01784098 0.9942597 0.135089 -0.9908333 6.35273e-4 0.1525735 -0.988292 6.32895e-4 -0.2708866 0.9626047 -0.003555536 -0.4217132 0.9067234 0.003277301 -0.05544608 -0.9814779 -0.1833764 0.7764133 0.6302099 -0.004222273 0.08873403 -0.9958648 -0.0194844 0.2408339 -0.9691311 0.0527634 0.02864295 -0.9994546 0.01643723 0.3018016 -0.9493819 0.08712005 -0.03638523 -0.997952 0.05261164 0.120138 -0.9919324 0.04045951 0.114277 -0.9933577 0.01346856 -0.4374705 0.8991895 -0.008836209 -0.9992915 0.03763675 1.39703e-4 -0.01943987 -0.9974211 -0.06908875 0.03767037 -0.9975169 0.05950701 -4.53354e-5 -0.9969332 0.0782572 0.07995015 -0.9964213 0.02743583 0.03652805 -0.9945637 0.09751272 0.006744921 -0.9978367 0.06539469 0.1862747 -0.9824669 0.007780611 0.1073787 -0.9916596 -0.07128256 0.2004286 -0.9796761 0.007952868 -0.05311489 -0.9985826 -0.00343883 -0.07243865 0.03106611 0.996889 0.9999247 -0.008042693 0.00928533 -0.06886017 0.03410726 -0.9970431 0.0337792 -0.9980303 -0.05286562 -0.002094089 0.0411846 -0.9991495 0.1052005 -0.994251 -0.01994293 0.2390608 -0.9709892 0.005464375 0.0564695 -0.9981135 -0.02409917 -0.02777612 -0.996797 0.07499521 -0.1081818 -0.9933905 -0.03836989 -0.004795551 -0.9995285 0.03032815 0.1534904 -0.9819074 -0.110899 0.04883337 -0.01791673 0.9986463 0.03506046 -0.9993659 -0.006217002 0.009152531 -0.9956162 -0.09308439 0.1858262 -0.9811076 0.0538212 0.002119183 -0.9999977 4.29972e-4 0.4658285 0.8848671 0.003757417 0.1052202 -0.9942477 -0.0200057 0.1927097 -0.9812552 0.001151621 0.007061004 -0.9998831 -0.01356637 0.1491879 -0.9876984 0.04684776 -0.08115917 -0.9592613 0.2706122 0.1262616 -0.9919956 -0.001731455 0.2208419 -0.9743244 -0.04382699 0.9840068 -0.1778628 0.009774148 0.11202 -0.9937022 -0.002724349</float_array>
          <technique_common>
            <accessor source="#left_finger_dist_link-mesh-normals-array" count="260" stride="3">
              <param name="X" type="float"/>
              <param name="Y" type="float"/>
              <param name="Z" type="float"/>
            </accessor>
          </technique_common>
        </source>
        <vertices id="left_finger_dist_link-mesh-vertices">
          <input semantic="POSITION" source="#left_finger_dist_link-mesh-positions"/>
        </vertices>
        <triangles count="260">
          <input semantic="VERTEX" source="#left_finger_dist_link-mesh-vertices" offset="0"/>
          <input semantic="NORMAL" source="#left_finger_dist_link-mesh-normals" offset="1"/>
          <p>8 0 100 0 10 0 10 1 9 1 8 1 30 2 35 2 36 2 37 3 38 3 39 3 45 4 47 4 46 4 14 5 45 5 99 5 99 6 45 6 46 6 107 7 130 7 113 7 129 8 124 8 123 8 47 9 49 9 48 9 48 10 49 10 112 10 112 11 49 11 17 11 48 12 51 12 50 12 53 13 5 13 52 13 53 14 52 14 7 14 114 15 0 15 12 15 120 16 121 16 118 16 7 17 52 17 54 17 7 18 54 18 41 18 55 19 56 19 3 19 3 20 56 20 2 20 55 21 53 21 56 21 62 22 66 22 61 22 5 23 4 23 30 23 57 24 12 24 58 24 58 25 59 25 56 25 92 26 88 26 87 26 29 27 33 27 35 27 89 28 69 28 87 28 5 29 36 29 54 29 93 30 63 30 96 30 56 31 64 31 57 31 56 32 57 32 58 32 34 33 37 33 39 33 107 34 116 34 104 34 11 35 66 35 71 35 60 36 67 36 66 36 65 37 63 37 60 37 60 38 63 38 68 38 72 39 70 39 89 39 69 40 70 40 67 40 116 41 106 41 104 41 11 42 71 42 72 42 11 43 72 43 48 43 48 44 72 44 51 44 73 45 74 45 51 45 51 46 74 46 50 46 73 47 51 47 75 47 80 48 79 48 75 48 50 49 74 49 81 49 81 50 74 50 73 50 73 51 75 51 79 51 76 52 78 52 10 52 77 53 78 53 76 53 80 54 77 54 79 54 76 55 10 55 79 55 79 56 10 56 81 56 79 57 81 57 73 57 100 58 82 58 10 58 86 59 53 59 7 59 86 60 7 60 83 60 53 61 86 61 84 61 29 62 4 62 3 62 62 63 57 63 64 63 53 64 3 64 4 64 72 65 89 65 51 65 89 66 88 66 51 66 27 67 26 67 31 67 63 68 56 68 95 68 85 69 86 69 83 69 63 70 62 70 64 70 93 71 91 71 92 71 91 72 90 72 92 72 68 73 93 73 69 73 70 74 71 74 67 74 93 75 87 75 69 75 84 76 97 76 53 76 53 77 97 77 94 77 53 78 94 78 56 78 94 79 95 79 56 79 96 80 95 80 94 80 91 81 93 81 96 81 123 82 103 82 98 82 127 83 117 83 98 83 114 84 129 84 127 84 103 85 101 85 98 85 39 86 40 86 34 86 18 87 22 87 19 87 24 88 23 88 25 88 130 89 112 89 113 89 31 90 28 90 27 90 97 91 96 91 94 91 33 92 32 92 37 92 18 93 25 93 22 93 21 94 18 94 13 94 21 95 13 95 102 95 26 96 20 96 32 96 26 97 32 97 31 97 102 98 20 98 21 98 29 99 3 99 27 99 19 100 23 100 1 100 13 101 18 101 114 101 30 102 29 102 35 102 85 103 10 103 78 103 33 104 28 104 31 104 56 105 1 105 2 105 9 106 83 106 7 106 36 107 35 107 34 107 6 108 42 108 101 108 101 109 42 109 38 109 1 110 24 110 2 110 38 111 37 111 32 111 102 112 101 112 32 112 32 113 101 113 38 113 80 114 51 114 88 114 102 115 32 115 20 115 101 116 103 116 6 116 100 117 50 117 81 117 7 118 41 118 103 118 103 119 100 119 9 119 103 120 9 120 7 120 100 121 81 121 82 121 99 122 46 122 100 122 100 123 46 123 50 123 107 124 110 124 99 124 104 125 108 125 110 125 104 126 110 126 107 126 15 127 108 127 16 127 16 128 108 128 115 128 105 129 115 129 106 129 106 130 115 130 108 130 124 131 99 131 100 131 108 132 104 132 106 132 109 133 44 133 43 133 110 134 43 134 112 134 44 135 109 135 112 135 43 136 44 136 112 136 112 137 17 137 110 137 110 138 17 138 14 138 99 139 110 139 14 139 43 140 110 140 109 140 110 141 108 141 15 141 15 142 16 142 109 142 110 143 15 143 109 143 115 144 109 144 16 144 111 145 102 145 114 145 1 146 0 146 19 146 114 147 102 147 13 147 12 148 57 148 11 148 57 149 61 149 11 149 114 150 12 150 11 150 112 151 11 151 48 151 109 152 116 152 113 152 109 153 115 153 116 153 113 154 112 154 109 154 23 155 22 155 25 155 116 156 115 156 105 156 21 157 25 157 18 157 42 158 6 158 40 158 39 159 38 159 42 159 36 160 34 160 40 160 8 161 9 161 100 161 54 162 52 162 5 162 34 163 35 163 33 163 10 164 82 164 81 164 5 165 53 165 4 165 27 166 2 166 24 166 29 167 27 167 28 167 77 168 76 168 79 168 125 169 127 169 98 169 25 170 27 170 24 170 20 171 26 171 25 171 96 172 90 172 91 172 58 173 1 173 59 173 19 174 0 174 18 174 90 175 84 175 77 175 62 176 65 176 60 176 12 177 0 177 58 177 66 178 67 178 71 178 66 179 11 179 61 179 87 180 88 180 89 180 128 181 118 181 121 181 129 182 118 182 128 182 122 183 119 183 120 183 122 184 120 184 123 184 50 185 47 185 48 185 36 186 41 186 54 186 129 187 123 187 120 187 129 188 120 188 118 188 122 189 123 189 98 189 119 190 98 190 117 190 119 191 122 191 98 191 84 192 78 192 77 192 121 193 131 193 127 193 121 194 127 194 128 194 6 195 41 195 40 195 80 196 90 196 77 196 98 197 111 197 125 197 125 198 111 198 126 198 111 199 127 199 126 199 129 200 128 200 127 200 67 201 68 201 69 201 114 202 127 202 111 202 114 203 11 203 130 203 121 204 117 204 131 204 121 205 119 205 117 205 111 206 101 206 102 206 103 207 124 207 100 207 14 208 49 208 45 208 45 209 49 209 47 209 107 210 124 210 130 210 129 211 130 211 124 211 114 212 18 212 0 212 120 213 119 213 121 213 62 214 60 214 66 214 92 215 80 215 88 215 29 216 28 216 33 216 89 217 70 217 69 217 5 218 30 218 36 218 93 219 68 219 63 219 34 220 33 220 37 220 107 221 113 221 116 221 116 222 105 222 106 222 29 223 30 223 4 223 62 224 61 224 57 224 53 225 55 225 3 225 27 226 25 226 26 226 63 227 64 227 56 227 85 228 84 228 86 228 63 229 65 229 62 229 70 230 72 230 71 230 93 231 92 231 87 231 96 232 63 232 95 232 123 233 124 233 103 233 127 234 131 234 117 234 114 235 130 235 129 235 39 236 42 236 40 236 130 237 11 237 112 237 97 238 90 238 96 238 33 239 31 239 32 239 85 240 9 240 10 240 56 241 59 241 1 241 9 242 85 242 83 242 1 243 23 243 24 243 80 244 75 244 51 244 124 245 107 245 99 245 1 246 58 246 0 246 23 247 19 247 22 247 21 248 20 248 25 248 27 249 3 249 2 249 125 250 126 250 127 250 90 251 97 251 84 251 50 252 46 252 47 252 36 253 40 253 41 253 84 254 85 254 78 254 6 255 103 255 41 255 80 256 92 256 90 256 67 257 60 257 68 257 111 258 98 258 101 258 14 259 17 259 49 259</p>
        </triangles>
      </mesh>
    </geometry>
  </library_geometries>
  <library_visual_scenes>
    <visual_scene id="Scene" name="Scene">
      <node id="left_finger_dist_link" name="left_finger_dist_link" type="NODE">
        <matrix sid="transform">1 0 0 0 0 1 0 0 0 0 1 0 0 0 0 1</matrix>
        <instance_geometry url="#left_finger_dist_link-mesh" name="left_finger_dist_link"/>
      </node>
      <node id="Camera" name="Camera" type="NODE">
        <matrix sid="transform">0.6859207 -0.3240135 0.6515582 7.358891 0.7276763 0.3054208 -0.6141704 -6.925791 0 0.8953956 0.4452714 4.958309 0 0 0 1</matrix>
        <instance_camera url="#Camera-camera"/>
      </node>
      <node id="Light" name="Light" type="NODE">
        <matrix sid="transform">-0.2908646 -0.7711008 0.5663932 4.076245 0.9551712 -0.1998834 0.2183912 1.005454 -0.05518906 0.6045247 0.7946723 5.903862 0 0 0 1</matrix>
        <instance_light url="#Light-light"/>
      </node>
    </visual_scene>
  </library_visual_scenes>
  <scene>
    <instance_visual_scene url="#Scene"/>
  </scene>
</COLLADA>