<?xml version="1.0" encoding="utf-8"?>
<COLLADA xmlns="http://www.collada.org/2005/11/COLLADASchema" version="1.4.1" xmlns:xsi="http://www.w3.org/2001/XMLSchema-instance">
  <asset>
    <contributor>
      <author>Blender User</author>
      <authoring_tool>Blender 3.0.1</authoring_tool>
    </contributor>
    <created>2026-08-17T11:26:51</created>
    <modified>2026-08-17T11:26:51</modified>
    <unit name="meter" meter="1"/>
    <up_axis>Z_UP</up_axis>
  </asset>
  <library_cameras>
    <camera id="Camera-camera" name="Camera">
      <optics>
        <technique_common>
          <perspective>
            <xfov sid="xfov">39.59775</xfov>
            <aspect_ratio>1.777778</aspect_ratio>
            <znear sid="znear">0.1</znear>
            <zfar sid="zfar">100</zfar>
          </perspective>
        </technique_common>
      </optics>
      <extra>
        <technique profile="blender">
          <shiftx sid="shiftx" type="float">0</shiftx>
          <shifty sid="shifty" type="float">0</shifty>
          <dof_distance sid="dof_distance" type="float">10</dof_distance>
        </technique>
      </extra>
    </camera>
  </library_cameras>
  <library_lights>
    <light id="Light-light" name="Light">
      <technique_common>
        <point>
          <color sid="color">1000 1000 1000</color>
          <constant_attenuation>1</constant_attenuation>
          <linear_attenuation>0</linear_attenuation>
          <quadratic_attenuation>0.00111109</quadratic_attenuation>
        </point>
      </technique_common>
      <extra>
        <technique profile="blender">
          <type sid="type" type="int">0</type>
          <flag sid="flag" type="int">0</flag>
          <mode sid="mode" type="int">1</mode>
          <gamma sid="blender_gamma" type="float">1</gamma>
          <red sid="red" type="float">1</red>
          <green sid="green" type="float">1</green>
          <blue sid="blue" type="float">1</blue>
          <shadow_r sid="blender_shadow_r" type="float">0</shadow_r>
          <shadow_g sid="blender_shadow_g" type="float">0</shadow_g>
          <shadow_b sid="blender_shadow_b" type="float">0</shadow_b>
          <energy sid="blender_energy" type="float">1000</energy>
          <dist sid="blender_dist" type="float">29.99998</dist>
          <spotsize sid="spotsize" type="float">75</spotsize>
          <spotblend sid="spotblend" type="float">0.15</spotblend>
          <att1 sid="att1" type="float">0</att1>
          <att2 sid="att2" type="float">1</att2>
          <falloff_type sid="falloff_type" type="int">2</falloff_type>
          <clipsta sid="clipsta" type="float">0.04999995</clipsta>
          <clipend sid="clipend" type="float">30.002</clipend>
          <bias sid="bias" type="float">1</bias>
          <soft sid="soft" type="float">3</soft>
          <bufsize sid="bufsize" type="int">2880</bufsize>
          <samp sid="samp" type="int">3</samp>
          <buffers sid="buffers" type="int">1</buffers>
          <area_shape sid="area_shape" type="int">1</area_shape>
          <area_size sid="area_size" type="float">0.1</area_size>
          <area_sizey sid="area_sizey" type="float">0.1</area_sizey>
          <area_sizez sid="area_sizez" type="float">1</area_sizez>
        </technique>
      </extra>
    </light>
  </library_lights>
  <library_images/>
  <library_geometries>
    <geometry id="right_finger_dist_link-mesh" name="right_finger_dist_link">
      <mesh>
        <source id="right_finger_dist_link-mesh-positions">
          <float_array id="right_finger_dist_link-mesh-positions-array" count="396">-0.01093953 0.006212532 0.007258057 -0.0111587 0.006125569 0.004429936 -0.01101738 0.006040155 0.001869738 -0.009110033 0.006288349 -4.38551e-4 -0.01076442 0.006032526 -6.923e-4 -0.01133316 0.00603789 -0.004365503 -0.006144344 0.006050884 -0.009970188 -0.01196247 0.006139218 -0.01015484 -0.01760679 0.006244599 -0.007472991 -0.01611465 0.00619924 -0.00768423 -0.01676541 0.00617212 0.007939815 -0.01236671 0.006109952 0.01013952 -0.006947755 0.006192028 0.01024091 -0.03446745 0.009304106 -0.008597314 -0.03945082 0.009933769 -0.007326483 -0.03952807 0.009938657 0.00732392 -0.0345453 0.009250342 0.008588314 -0.009109377 0.006286621 -0.00643742 -0.01098734 0.006070971 -0.007936775 -0.008194208 0.006124138 0.008130669 -0.008395791 0.006039738 0.006503224 -0.003253698 0.005649983 0.007780551 -0.004134833 0.005822181 0.006056666 -0.005490481 0.005999028 0.008417129 -0.005806803 0.006022036 0.006472051 -0.008326709 0.006154656 0.005281984 -0.008523702 0.006105482 0.003059208 -0.004092991 0.005840063 0.002996563 -0.005775928 0.005952596 0.004252612 -0.006498456 0.006186783 0.001910984 -0.008249998 0.006130456 7.28628e-4 -0.004553139 0.005862295 1.02958e-5 -0.005796432 0.005991518 4.78132e-4 -0.006772041 0.006098151 -0.001537621 -0.009152591 0.006148219 -0.002996206 -0.003445744 0.005610227 -0.002676665 -0.004730939 0.005989253 -0.002613425 -0.00576657 0.005963444 -0.004007935 -0.008010149 0.006145119 -0.003434598 -0.008365929 0.006012618 -0.005508542 -0.003594756 0.005689859 -0.006026625 -0.005891203 0.006010949 -0.00535959 -0.006936728 0.006201088 -0.007085084 -0.008453726 0.006078422 -0.008518218 -0.00598526 0.006034255 -0.00765264 -0.004726052 0.005970478 -0.008604466 -0.03692579 0.008321702 -0.008180856 -0.03697913 0.008275806 0.008185446 -0.02950459 0.008603811 0.008507668 -0.02700966 0.008056044 0.008394837 -0.03199291 0.008983135 0.008671224 -0.03199189 0.008975088 -0.008677363 -0.02948242 0.008606135 -0.008515894 -0.02699249 0.008079409 -0.008773326 -0.01292699 0.00617659 -0.0052253 -0.01250165 0.006070673 -0.007416129 -0.01175862 0.006161808 -0.001542925 -0.01288878 0.006206572 7.91372e-4 -0.01345527 0.006019353 -0.002343416 -0.01368516 0.005866885 0.009328484 -0.0119515 0.006154179 0.007765769 -0.01353812 0.006001949 0.003497302 -0.01313608 0.006053626 0.00650227 -0.01601594 0.006135404 0.006617903 -0.01425141 0.006154835 0.006090104 -0.01605302 0.006108164 0.003726243 -0.01514858 0.006195843 0.0086205 -0.01786321 0.006239295 0.009968817 -0.02003926 0.00659722 0.006321787 -0.01894927 0.006393909 0.008089959 -0.01798194 0.006292998 0.004399061 -0.02150052 0.006964802 0.004718005 -0.02108091 0.006766021 0.00253427 -0.01893174 0.006436228 0.005737364 -0.02153962 0.006969034 0.007168292 -0.02364701 0.007399499 0.005623638 -0.02275609 0.007151126 -0.004587113 -0.02151823 0.006883442 -0.00716108 -0.01953607 0.006506025 -0.005967319 -0.01870596 0.006328582 -0.003592371 -0.01820719 0.006423711 -0.005341172 -0.02145141 0.006910264 -0.004780709 -0.01988852 0.0066064 -0.008641541 -0.01418405 0.006067216 -0.005873262 -0.01594084 0.006109714 -0.005404114 -0.01551324 0.006153881 -0.003210961 -0.0233367 0.00735563 0.001467108 -0.02218985 0.007035911 -0.001489222 -0.02363526 0.00738728 -0.003372132 -0.01741236 0.0063138 -0.001456975 -0.0196914 0.006527423 1.08111e-4 -0.01993185 0.006513655 -0.002711772 -0.01816201 0.006281554 0.001577019 -0.02091693 0.006778299 -3.70026e-4 -0.01592266 0.006170272 -0.001571118 -0.01468521 0.006125628 1.44976e-4 -0.01620316 0.006147682 3.78101e-4 -0.01474756 0.006174087 0.002746701 -0.03439968 0.008990705 -0.01061248 -0.01751899 0.005915522 -0.010526 -0.001954674 0.004600405 0.01168632 -0.001850605 0.004480898 -0.01173079 -0.01017862 0.005463063 -0.01135128 -0.04271787 0.005066692 -0.008512496 -0.0429157 0.0100519 -0.006843864 -0.04294347 0.0100643 0.006776809 -0.04277306 0.00497359 0.008363425 -0.03456109 7.84367e-4 -0.01076912 -0.03795534 0.008037984 0.01020771 -0.03717017 0.007688939 -0.01040893 -0.03970664 0.00962466 -0.009709537 -0.001054823 2.3049e-4 0.01173156 -0.03445196 9.43565e-4 0.01083403 -0.02014911 0.006061971 0.01061624 -0.01018166 0.005499184 0.01131922 -0.03970915 0.009636759 0.009712755 -0.03436553 0.008964776 0.01061415 -0.003890633 -0.00986272 0.007321119 -0.002464711 -0.007974803 -0.007000625 -0.003926873 -0.009869873 -0.007317185 -0.002479374 -0.008071362 0.007164597 -0.002860903 -0.009406626 0.01122558 -0.002645254 -0.009084582 -0.01107221 -0.006229877 -0.009907186 -0.01115655 -0.02216756 -0.002701163 -0.01022571 3.68101e-5 7.75625e-5 -0.01177555 -0.001612782 -7.50726e-4 -0.01163834 -0.001667439 -0.008390963 -0.006497621 -0.001857459 -0.008254349 0.006499171 7.75306e-5 -4.26236e-6 0.01185506 -0.007637917 -0.009536564 0.01099205 -0.02297925 -0.002397358 0.01017689</float_array>
          <technique_common>
            <accessor source="#right_finger_dist_link-mesh-positions-array" count="132" stride="3">
              <param name="X" type="float"/>
              <param name="Y" type="float"/>
              <param name="Z" type="float"/>
            </accessor>
          </technique_common>
        </source>
        <source id="right_finger_dist_link-mesh-normals">
          <float_array id="right_finger_dist_link-mesh-normals-array" count="777">0.7918646 -0.6106946 -0.001661658 0.2162283 0.9143794 0.3422799 -0.2791365 -0.960214 0.008485853 0.125582 0.9809318 -0.1483303 0.1606702 0.9654148 0.205328 0.2144541 0.976734 4.13017e-4 0.1689376 0.9646201 -0.2024059 0.1583036 0.9215522 -0.3545161 0.09904259 0.986519 0.130272 0.1900671 0.9813161 0.02989017 -0.03525853 0.9993574 -0.006462514 0.03321391 0.9989504 0.03154373 -0.03799599 0.9986507 -0.0353977 -0.01001513 0.9993759 -0.03387725 0.03772908 0.9981117 -0.04847389 -0.3574454 -0.9209139 -0.1554037 -0.08449393 0.9964225 0.001773118 0.2934634 0.9507498 -0.09977084 0.09781461 0.9948751 0.02560704 0.09911191 0.9929769 0.0646041 0.1477616 0.9888659 0.01763629 0.9998901 0.002659857 0.01458889 -0.0662288 0.9976546 -0.01729768 -0.02101308 0.9986732 -0.04701429 0.06519603 0.9978725 6.26745e-5 0.09173953 0.995727 -0.01056176 -0.002392351 0.9995731 -0.02912056 -0.2459397 0.9691491 0.01624137 0.3120721 0.949589 0.02986383 0.1944541 0.979474 0.05308723 -0.3800889 0.2346692 0.8946859 -0.04632139 0.9930202 0.1084683 0.145401 0.9696713 0.1964592 0.1766569 0.982181 0.06413358 0.1043027 0.9932911 0.04993766 0.1025391 0.9944737 0.02253752 0.1360829 0.9905829 -0.01507228 0.03127777 0.9986386 -0.04174607 0.03552287 0.9987024 0.03649318 0.1003987 0.9949147 -0.008066713 0.01573055 0.9685171 0.2484496 0.2542045 0.9638264 0.08011716 0.1928349 0.98123 0.001526296 0.2665071 0.9394687 -0.2153429 0.2331113 0.9722379 -0.02031236 0.2131692 0.9770149 9.27135e-4 0.1883963 0.9808369 0.04965758 0.08911883 0.9943045 -0.0584492 0.03830307 -0.06460893 0.9971753 0.1966508 0.9803335 -0.01657372 0.2051183 0.9737124 -0.09904909 0.05223852 0.996585 0.06395012 0.03395599 0.9987524 0.03661477 0.05836433 0.9977994 -0.03146392 -0.9773961 -0.1027364 -0.184776 0.008731782 0.9998929 0.01174807 0.2449061 0.9693812 0.01792573 0.03192001 0.9974805 0.06335508 0.139176 0.9858615 0.09331303 -0.07187873 -0.0277397 0.9970276 0.1849382 0.9827442 0.003432869 0.09656357 0.9904252 0.09865796 -0.001114964 -0.03423106 -0.9994134 0.2150837 0.9763939 -0.01984888 0.2122432 0.9771939 -0.006707191 0.2471375 0.9689395 -0.008913099 0.06768256 0.9973125 -0.02805113 0.0733475 0.9972704 0.008494019 0.1591915 0.9871462 -0.01415967 0.06282728 0.9980081 0.005702018 0.09697532 0.9951847 0.01425558 -0.05291885 0.9985553 0.009332597 0.0117067 0.9997634 -0.01833653 0.09474205 0.9954926 0.004312217 0.1499058 0.9885893 -0.01481842 0.05440866 0.9887839 0.1390907 0.1854307 0.9812848 0.05192077 0.09478199 0.9951559 0.02609717 0.07585531 0.9961881 0.04307347 -0.04760211 -0.04347467 0.9979199 -0.999253 -0.03848892 -0.003480315 -0.03649502 0.9993134 0.006409883 0.05321818 0.9985768 0.003516495 0.2837565 0.9588599 0.008360207 0.2416874 0.9703518 0.00217092 0.2373596 0.9710438 -0.02710127 0.09870618 0.9949563 -0.01786381 0.1760078 0.9841897 -0.01979613 0.4192094 0.9078224 0.0110442 0.205897 0.9785449 -0.007502853 0.1608296 0.9866883 0.02408677 -0.1841741 0.9798524 0.07726144 -0.024724 0.9838234 0.1774274 -0.08862489 0.9831954 -0.1596007 -0.5520436 0.5688734 0.6096155 -0.1740708 0.9846587 -0.01211708 0.04460531 0.9925472 -0.1134039 0.02125 0.9997742 -3.69223e-4 0.2548067 0.9653031 -0.05712795 -0.1870237 0.9457163 0.2657874 0.2003735 0.9797087 0.004617094 0.009767115 0.9997835 0.01837164 -0.4662147 -0.8846486 -0.006403565 0.01254463 0.9998666 0.01047259 0.006178855 0.998598 -0.05257219 0.4389126 0.898486 -0.008877336 0.1743842 0.9846737 0.002845942 0.0749557 0.983682 -0.1635588 0.2576962 0.9426535 -0.2121254 0.3945999 0.9159117 -0.07346236 -0.04764622 0.9988059 -0.01079791 0.1000183 0.9732142 0.2070041 0.5715641 0.8205558 -0.001647472 0.5583256 0.8296062 -0.005108892 0.120683 0.9918701 0.04036474 0.293859 0.9551461 0.03664427 -0.1410382 -0.9899837 0.006355106 0.07173597 0.8249239 -0.5606735 0.2190708 0.9754992 -0.02023524 -0.07233655 -0.03121352 -0.9968918 -0.001975953 0.8693247 -0.4942375 -0.6154264 -0.5369995 -0.5769592 0.1754581 0.9566056 -0.2326375 -0.08291113 0.02064704 -0.9963431 -0.3014049 -0.05092513 -0.9521355 -0.2963552 -0.06226718 -0.9530459 -0.7542094 0.6566207 -0.004196226 -0.8590465 0.5118976 -4.29613e-4 0.1314362 0.9913245 -6.0126e-4 0.1316022 0.9913025 -6.34225e-4 0.08506184 0.9963021 -0.01210904 0.2475193 0.9688391 -0.009226799 -0.6325806 0.2231415 -0.7416535 -0.2328705 0.9725058 0.001968681 -0.2565227 0.9665365 0.001874864 0.984921 0.1046723 -0.1377479 -0.2492889 0.9684078 -0.006439685 -0.9697154 0.2147516 0.116335 -0.5131705 0.8582867 3.62508e-4 -0.4294425 0.8900611 -0.152874 -0.8742554 0.4836905 -0.04148513 0.5690407 0.8054704 -0.165561 0.7675826 0.6409386 0.003833055 0.7117719 0.7022457 0.01522064 0.6442447 0.7511867 0.143761 -0.04445004 0.001187682 0.9990109 0.004563808 0.9979051 -0.06453412 0.05391424 0.7587009 0.6492045 0.03256666 0.9416087 -0.3351307 0.0912646 0.9956918 0.01639741 0.007060229 0.8932823 0.4494407 0.02779918 0.9347557 0.3542019 0.1935013 0.9478518 0.2532475 -0.3159943 -0.07252895 0.9459848 -0.3225298 -0.06139862 0.944566 -0.119719 0.02849465 0.9923989 -0.6421175 0.2084363 0.737726 0.009006321 0.9996004 0.02679401 -0.02774828 0.9937431 -0.1081885 -0.006134152 0.9935526 0.1132059 0.01511114 0.9941743 -0.1067206 0.03273361 0.9987447 0.03791803 0.1018272 0.9943988 -0.02832669 0.284025 0.9584329 0.02713632 -0.1448758 0.9880967 -0.05172997 0.1791645 0.9836871 -0.01612019 0.05644768 0.9982968 -0.0147354 0.07176566 0.9973982 0.006819665 0.2089304 0.9776698 -0.02258157 0.1589776 0.9871301 0.0173369 0.1624546 0.9867081 -0.003987669 0.09196776 0.9957128 -0.009904026 0.0505293 0.9970379 -0.05798476 0.0528267 0.9965977 -0.06326532 -0.01773905 0.99959 -0.02247518 0.2259178 0.9737644 -0.02727663 0.216517 0.9760407 -0.02156037 0.7731 -0.6205227 -0.1314073 0.02163696 -0.9936546 0.1103743 0.7735449 -0.6193037 0.1345036 0.2247035 -0.9663255 -0.1253929 -0.4124936 -0.9108945 -0.01097965 0.1454365 0.9893676 3.24714e-4 -0.08603197 -0.9962922 6.98573e-4 -0.01056492 -0.9998152 0.01605916 -0.07242643 -0.02090317 -0.9971547 0.04012066 -0.07267087 -0.9965487 0.2250779 -0.5450301 -0.8076399 0.9922751 -0.1236295 -0.01029926 0.9794362 0.2017266 0.003324806 0.9821121 -0.1856941 0.03120195 0.5781831 -0.4671894 0.6689084 -0.02040946 0.9979743 -0.06025522 0.2026777 0.9792408 0.003041505 0.08543676 0.9963287 0.005463182 0.06677603 0.997308 -0.0302962 -0.4639796 -0.8858423 0.002526402 -0.2890162 -0.9572999 -0.00682342 -0.0634576 -0.02050644 -0.9977739 -0.04846101 -0.02510023 -0.9985097 0.4503366 -0.8924592 0.02671891 0.1039988 0.994571 0.00358355 0.7853764 -0.6190091 -0.003403723 -0.2708784 -0.9626071 0.003556132 0.2071229 0.9783138 0.001536488 0.1825108 0.9817037 -0.05429267 -0.02962231 0.9995351 0.007220029 -0.03459197 0.9960036 -0.08234196 0.03965753 0.9956088 0.08479684 -0.003718197 0.999756 -0.02177721 -0.0137856 0.9998623 -0.009247303 -0.04546165 0.9815862 -0.1855307 0.01667058 0.9997633 0.01398456 0.1351591 0.9907613 0.01114022 0.1793105 0.9837029 0.01328498 0.9964486 -0.0817058 -0.02036023 0.0541771 0.994659 0.08785533 0.01789301 0.9995611 -0.02360928 0.07460594 0.9969238 -0.02401816 0.1358693 0.9897089 -0.04489773 0.07404738 0.9972056 0.009893774 0.1407477 0.9898949 0.01727038 0.005433857 0.02734351 0.9996113 -0.05885863 0.9968774 -0.05264055 0.05798262 0.9979189 -0.02821356 0.1948352 0.980719 0.01514643 -0.06846666 -0.03327959 0.9970982 -0.001041591 0.9995293 -0.03066581 0.04887914 0.01809877 -0.9986408 0.01402521 0.9953556 0.09524029 -0.04026699 0.9990962 0.01361185 0.1994029 0.970807 0.133313 0.2069608 0.978349 7.43494e-4 0.1108348 0.9934544 -0.0276429 0.1042141 0.9945526 0.002171695 -0.06382691 -0.03250187 0.9974316 -0.9994171 -0.03407967 -0.002006947 0.01575559 0.9998573 0.006097972 0.1991022 0.9799777 0.00147438 -0.1275203 0.9910009 0.0406931 0.05896586 0.9979653 0.02425307 0.2686365 0.9625687 -0.0360009 -0.4379945 -0.8989343 0.008836627 0.003079652 0.9999496 0.009556591 0.04576736 0.9989425 0.004387736 -0.06331008 0.9976608 -0.02578318 0.01047646 0.9952973 -0.09629917 0.08779269 0.9956158 0.03227829 -0.1101781 0.02480918 -0.9936022 0.1078365 0.9924489 -0.05845111 0.2230132 0.974805 -0.004525065 0.08753848 0.9957967 0.02694469 -0.4217653 -0.9066991 -0.003278911 0.1506769 0.988583 -4.50803e-4 0.9185334 0.393305 0.04009664 -0.01393938 0.9982052 -0.05824232 0.1029475 0.9942104 0.03078484 0.007924795 0.9955288 0.0941258 0.1317418 0.991284 -4.53093e-4</float_array>
          <technique_common>
            <accessor source="#right_finger_dist_link-mesh-normals-array" count="259" stride="3">
              <param name="X" type="float"/>
              <param name="Y" type="float"/>
              <param name="Z" type="float"/>
            </accessor>
          </technique_common>
        </source>
        <vertices id="right_finger_dist_link-mesh-vertices">
          <input semantic="POSITION" source="#right_finger_dist_link-mesh-positions"/>
        </vertices>
        <triangles count="259">
          <input semantic="VERTEX" source="#right_finger_dist_link-mesh-vertices" offset="0"/>
          <input semantic="NORMAL" source="#right_finger_dist_link-mesh-normals" offset="1"/>
          <p>118 0 117 0 119 0 49 1 48 1 116 1 107 2 131 2 112 2 13 3 51 3 98 3 50 4 116 4 48 4 49 5 52 5 48 5 98 6 51 6 53 6 53 7 51 7 52 7 16 8 116 8 50 8 70 9 71 9 73 9 2 10 30 10 4 10 7 11 9 11 55 11 2 12 61 12 1 12 1 13 26 13 2 13 65 14 64 14 61 14 61 15 57 15 56 15 56 16 58 16 61 16 18 17 102 17 7 17 96 18 94 18 89 18 44 19 40 19 45 19 82 20 78 20 8 20 126 21 128 21 127 21 60 22 0 22 62 22 56 23 34 23 5 23 83 24 85 24 58 24 63 25 65 25 70 25 10 26 66 26 63 26 62 27 61 27 59 27 59 28 61 28 64 28 59 29 64 29 66 29 59 30 66 30 10 30 67 31 69 31 113 31 74 32 113 32 69 32 71 33 68 33 73 33 68 34 69 34 10 34 10 35 69 35 67 35 73 36 68 36 10 36 37 37 33 37 36 37 8 38 84 38 9 38 32 39 27 39 31 39 113 40 74 40 75 40 113 41 75 41 49 41 49 42 75 42 53 42 35 43 37 43 36 43 88 44 76 44 53 44 53 45 76 45 77 45 81 46 76 46 91 46 80 47 8 47 78 47 113 48 112 48 131 48 81 49 78 49 77 49 99 50 82 50 8 50 58 51 5 51 54 51 84 52 83 52 9 52 79 53 85 53 84 53 54 54 55 54 58 54 58 55 55 55 83 55 72 56 93 56 86 56 80 57 78 57 79 57 80 58 79 58 84 58 131 59 114 59 113 59 75 60 86 60 53 60 25 61 0 61 20 61 124 62 98 62 99 62 87 63 93 63 91 63 53 64 86 64 88 64 88 65 86 65 87 65 28 66 26 66 25 66 65 67 96 67 92 67 70 68 92 68 72 68 85 69 94 69 58 69 89 70 94 70 85 70 11 71 0 71 60 71 97 72 95 72 96 72 58 73 95 73 61 73 95 74 97 74 61 74 61 75 97 75 65 75 79 76 81 76 91 76 63 77 73 77 10 77 33 78 31 78 36 78 111 79 130 79 121 79 106 80 104 80 103 80 26 81 29 81 30 81 6 82 44 82 45 82 32 83 29 83 28 83 71 84 74 84 68 84 24 85 23 85 28 85 28 86 23 86 22 86 31 87 27 87 35 87 35 88 27 88 22 88 35 89 22 89 21 89 12 90 21 90 23 90 12 91 19 91 114 91 114 92 19 92 0 92 102 93 43 93 6 93 39 94 17 94 18 94 60 95 59 95 11 95 32 96 30 96 29 96 33 97 34 97 30 97 30 98 34 98 3 98 30 99 3 99 4 99 71 100 86 100 75 100 34 101 33 101 38 101 107 102 106 102 103 102 18 103 5 103 39 103 19 104 24 104 20 104 41 105 37 105 44 105 44 106 42 106 41 106 43 107 42 107 44 107 6 108 45 108 101 108 101 109 45 109 40 109 62 110 1 110 61 110 42 111 17 111 39 111 100 112 101 112 35 112 35 113 101 113 40 113 92 114 89 114 90 114 100 115 35 115 12 115 12 116 35 116 21 116 101 117 102 117 6 117 99 118 53 118 77 118 124 119 102 119 123 119 102 120 99 120 7 120 99 121 77 121 82 121 99 122 98 122 53 122 107 123 109 123 98 123 103 124 110 124 109 124 103 125 109 125 107 125 14 126 110 126 15 126 15 127 110 127 115 127 110 128 104 128 115 128 115 129 104 129 105 129 89 130 91 130 90 130 87 131 76 131 88 131 110 132 103 132 104 132 108 133 47 133 46 133 47 134 116 134 46 134 46 135 116 135 109 135 108 136 116 136 47 136 116 137 16 137 109 137 109 138 16 138 13 138 98 139 109 139 13 139 46 140 109 140 108 140 109 141 110 141 14 141 14 142 15 142 108 142 109 143 14 143 108 143 115 144 108 144 15 144 111 145 100 145 114 145 38 146 41 146 39 146 114 147 100 147 12 147 11 148 59 148 67 148 67 149 59 149 10 149 114 150 11 150 67 150 114 151 67 151 113 151 116 152 113 152 49 152 108 153 106 153 112 153 108 154 115 154 106 154 112 155 116 155 108 155 105 156 106 156 115 156 55 157 18 157 7 157 18 158 17 158 43 158 39 159 41 159 42 159 99 160 8 160 9 160 55 161 9 161 83 161 5 162 55 162 54 162 36 163 31 163 35 163 3 164 34 164 4 164 76 165 81 165 77 165 58 166 94 166 95 166 22 167 27 167 28 167 91 168 93 168 90 168 22 169 23 169 21 169 92 170 90 170 72 170 92 171 70 171 65 171 19 172 20 172 0 172 19 173 12 173 23 173 66 174 64 174 63 174 68 175 74 175 69 175 86 176 93 176 87 176 121 177 117 177 120 177 130 178 117 178 121 178 122 179 118 179 119 179 122 180 119 180 123 180 130 181 124 181 123 181 51 182 48 182 52 182 117 183 130 183 119 183 130 184 123 184 119 184 125 185 126 185 101 185 122 186 123 186 126 186 118 187 126 187 127 187 118 188 122 188 126 188 111 189 101 189 100 189 111 190 121 190 120 190 120 191 128 191 111 191 39 192 34 192 38 192 125 193 111 193 129 193 4 194 57 194 2 194 25 195 24 195 28 195 128 196 118 196 127 196 118 197 128 197 120 197 101 198 126 198 123 198 101 199 123 199 102 199 125 200 111 200 126 200 50 201 13 201 16 201 118 202 120 202 117 202 107 203 124 203 131 203 49 204 53 204 52 204 70 205 72 205 71 205 2 206 26 206 30 206 7 207 99 207 9 207 2 208 57 208 61 208 1 209 25 209 26 209 65 210 63 210 64 210 18 211 43 211 102 211 96 212 95 212 94 212 44 213 37 213 40 213 82 214 77 214 78 214 126 215 111 215 128 215 56 216 4 216 34 216 83 217 84 217 85 217 37 218 38 218 33 218 8 219 80 219 84 219 32 220 28 220 27 220 35 221 40 221 37 221 113 222 116 222 112 222 58 223 56 223 5 223 79 224 89 224 85 224 72 225 90 225 93 225 131 226 130 226 114 226 25 227 1 227 0 227 124 228 107 228 98 228 28 229 29 229 26 229 65 230 97 230 96 230 11 231 114 231 0 231 79 232 78 232 81 232 63 233 70 233 73 233 33 234 32 234 31 234 111 235 114 235 130 235 106 236 105 236 104 236 6 237 43 237 44 237 71 238 75 238 74 238 60 239 62 239 59 239 32 240 33 240 30 240 71 241 72 241 86 241 107 242 112 242 106 242 18 243 55 243 5 243 19 244 23 244 24 244 62 245 0 245 1 245 42 246 43 246 17 246 92 247 96 247 89 247 124 248 99 248 102 248 89 249 79 249 91 249 87 250 91 250 76 250 38 251 37 251 41 251 130 252 131 252 124 252 51 253 50 253 48 253 111 254 125 254 101 254 39 255 5 255 34 255 4 256 56 256 57 256 25 257 20 257 24 257 50 258 51 258 13 258</p>
        </triangles>
      </mesh>
    </geometry>
  </library_geometries>
  <library_visual_scenes>
    <visual_scene id="Scene" name="Scene">
      <node id="right_finger_dist_link" name="right_finger_dist_link" type="NODE">
        <matrix sid="transform">1 0 0 0 0 1 0 0 0 0 1 0 0 0 0 1</matrix>
        <instance_geometry url="#right_finger_dist_link-mesh" name="right_finger_dist_link"/>
      </node>
      <node id="Camera" name="Camera" type="NODE">
        <matrix sid="transform">0.6859207 -0.3240135 0.6515582 7.358891 0.7276763 0.3054208 -0.6141704 -6.925791 0 0.8953956 0.4452714 4.958309 0 0 0 1</matrix>
        <instance_camera url="#Camera-camera"/>
      </node>
      <node id="Light" name="Light" type="NODE">
        <matrix sid="transform">-0.2908646 -0.7711008 0.5663932 4.076245 0.9551712 -0.1998834 0.2183912 1.005454 -0.05518906 0.6045247 0.7946723 5.903862 0 0 0 1</matrix>
        <instance_light url="#Light-light"/>
      </node>
    </visual_scene>
  </library_visual_scenes>
  <scene>
    <instance_visual_scene url="#Scene"/>
  </scene>
</COLLADA>