<?xml version="1.0" encoding="utf-8"?>
<COLLADA xmlns="http://www.collada.org/2005/11/COLLADASchema" version="1.4.1" xmlns:xsi="http://www.w3.org/2001/XMLSchema-instance">
  <asset>
    <contributor>
      <author>Blender User</author>
      <authoring_tool>Blender 3.0.1</authoring_tool>
    </contributor>
    <created>2026-08-17T11:28:09</created>
    <modified>2026-08-17T11:28:09</modified>
    <unit name="meter" meter="1"/>
    <up_axis>Z_UP</up_axis>
  </asset>
  <library_cameras>
    <camera id="Camera-camera" name="Camera">
      <optics>
        <technique_common>
          <perspective>
            <xfov sid="xfov">39.59775</xfov>
            <aspect_ratio>1.777778</aspect_ratio>
            <znear sid="znear">0.1</znear>
            <zfar sid="zfar">100</zfar>
          </perspective>
        </technique_common>
      </optics>
      <extra>
        <technique profile="blender">
          <shiftx sid="shiftx" type="float">0</shiftx>
          <shifty sid="shifty" type="float">0</shifty>
          <dof_distance sid="dof_distance" type="float">10</dof_distance>
        </technique>
      </extra>
    </camera>
  </library_cameras>
  <library_lights>
    <light id="Light-light" name="Light">
      <technique_common>
        <point>
          <color sid="color">1000 1000 1000</color>
          <constant_attenuation>1</constant_attenuation>
          <linear_attenuation>0</linear_attenuation>
          <quadratic_attenuation>0.00111109</quadratic_attenuation>
        </point>
      </technique_common>
      <extra>
        <technique profile="blender">
          <type sid="type" type="int">0</type>
          <flag sid="flag" type="int">0</flag>
          <mode sid="mode" type="int">1</mode>
          <gamma sid="blender_gamma" type="float">1</gamma>
          <red sid="red" type="float">1</red>
          <green sid="green" type="float">1</green>
          <blue sid="blue" type="float">1</blue>
          <shadow_r sid="blender_shadow_r" type="float">0</shadow_r>
          <shadow_g sid="blender_shadow_g" type="float">0</shadow_g>
          <shadow_b sid="blender_shadow_b" type="float">0</shadow_b>
          <energy sid="blender_energy" type="float">1000</energy>
          <dist sid="blender_dist" type="float">29.99998</dist>
          <spotsize sid="spotsize" type="float">75</spotsize>
          <spotblend sid="spotblend" type="float">0.15</spotblend>
          <att1 sid="att1" type="float">0</att1>
          <att2 sid="att2" type="float">1</att2>
          <falloff_type sid="falloff_type" type="int">2</falloff_type>
          <clipsta sid="clipsta" type="float">0.04999995</clipsta>
          <clipend sid="clipend" type="float">30.002</clipend>
          <bias sid="bias" type="float">1</bias>
          <soft sid="soft" type="float">3</soft>
          <bufsize sid="bufsize" type="int">2880</bufsize>
          <samp sid="samp" type="int">3</samp>
          <buffers sid="buffers" type="int">1</buffers>
          <area_shape sid="area_shape" type="int">1</area_shape>
          <area_size sid="area_size" type="float">0.1</area_size>
          <area_sizey sid="area_sizey" type="float">0.1</area_sizey>
          <area_sizez sid="area_sizez" type="float">1</area_sizez>
        </technique>
      </extra>
    </light>
  </library_lights>
  <library_images/>
  <library_geometries>
    <geometry id="right_finger_prox_link-mesh" name="right_finger_prox_link">
      <mesh>
        <source id="right_finger_prox_link-mesh-positions">
          <float_array id="right_finger_prox_link-mesh-positions-array" count="387">-0.0285629 -0.003611505 -0.00979644 -0.04515284 0.02019393 -0.01168894 0.004626035 0.003832459 -0.008292138 0.004078388 -0.00471127 0.008273839 0.004166245 -0.004529476 -0.008136928 -0.04492926 0.01937693 -0.007207155 -0.04669499 0.008195221 -0.007270157 -0.0108872 -0.01626634 -0.01055097 -0.04512226 0.02022212 0.01181972 -0.0466727 0.008041679 -0.01102542 0.005656659 0.002432525 0.01162499 0.004093408 0.005300581 0.009254932 -0.04100012 0.02370184 0.01125001 -0.001165449 0.004946827 -0.01168608 0.004553318 0.00124228 -0.01178109 -1.87455e-4 -0.004550337 -0.0118153 -0.004784762 -0.001228511 -0.01167941 0.005099952 -0.002063214 0.01183187 0.004578411 0.004638612 -0.01139271 0.005230486 -0.002293229 -0.0115354 -0.01136374 -0.01649117 0.008152008 -0.04493564 0.01939439 0.007348299 -0.04676091 0.008102595 0.01085776 -0.002664029 0.004118442 0.01171571 -0.004704713 -1.69129e-4 0.01182597 5.1014e-4 -0.005083501 0.01195859 0.002707719 0.004039049 0.01180177 -0.01082146 -0.01622128 0.01084268 -0.02901798 -0.003850519 0.009813189 -0.003341257 0.007401108 -0.003371357 -0.004434406 0.007523715 0.006052553 -0.004537522 0.007668077 0.00306499 -0.008482873 0.008699715 0.0084728 -0.005694985 0.007939457 0.00773704 -0.002649664 0.007245063 0.007398605 -0.006620287 0.007907688 0.01107054 -0.009515166 0.008915364 0.005756676 -0.01221418 0.009794175 0.004298627 -0.01491916 0.01073926 0.006295323 -0.01236599 0.009876906 0.007250666 -0.01861238 0.01193219 0.009795725 -0.01749736 0.01171708 0.005027174 -0.02306771 0.01405102 0.003273487 -0.01912903 0.01230049 0.006647706 -0.02244144 0.01385009 0.00638467 -0.02427679 0.01470816 0.006177902 -0.02717524 0.01605385 0.003199994 -0.02360486 0.01415884 0.008745253 -0.02692425 0.01604181 0.007525682 -0.02887731 0.01720106 0.003068685 -0.02927106 0.0173251 0.006322681 -0.03287947 0.01959216 0.006173551 -0.03481286 0.02065366 0.007218897 -0.03828638 0.02275931 0.006086647 -0.03845477 0.02289801 0.008709132 -0.04089516 0.02344483 0.004685223 -0.04245746 0.02276188 -0.01149827 -0.04085469 0.02351468 -0.004227757 -0.04023736 0.02350145 -0.01065188 -0.03797906 0.02265441 -0.00578469 -0.03915965 0.02319347 -0.007580459 -0.0371387 0.0221942 -0.008518338 -0.03376203 0.02013254 -0.006148159 -0.0312305 0.0184949 -0.004409134 -0.03805494 0.02266716 -0.002750098 -0.03287822 0.01954323 -0.003014743 -0.03217321 0.01916682 -0.007784187 -0.02909618 0.01718753 -0.002943813 -0.02898079 0.01714682 -0.006194651 -0.02770495 0.01628094 -0.009774506 -0.02293717 0.0140441 -0.005684077 -0.02284497 0.01410543 -0.008350431 -0.02476853 0.01484829 -0.006160855 -0.02661544 0.01587194 -0.004438757 -0.02267223 0.01387208 -0.002928078 -0.01810526 0.01180684 -0.008409976 -0.01999408 0.01259297 -0.006844937 -0.0179165 0.011792 -0.006006956 -0.02046871 0.01292467 -0.004278957 -0.01754146 0.01169389 -0.003329873 -0.01238775 0.009845376 -0.006937265 -0.01500499 0.01076853 -0.007541239 -0.01079547 0.008906245 -0.01085346 -0.0102362 0.009136021 -0.004517555 -0.01209503 0.009763181 -0.00436151 -0.01521062 0.01081585 -0.0048635 -0.008157253 0.008565485 -0.006196975 -0.00451827 0.007535278 -0.006065368 -0.005509614 0.007858574 -0.004344999 -0.004343986 0.007662355 -0.00829786 -0.008002638 0.008483946 -0.009182691 -0.04051965 0.02356415 -6.12389e-4 -0.03903728 0.02308326 0.001496911 -0.03815793 0.02271074 0.003158867 -0.03611916 0.02157956 0.004794418 -0.04041421 0.02358633 0.007690489 -0.02910941 0.01726549 8.20678e-6 -0.03137767 0.01860773 -0.001439273 -0.03132295 0.01857924 0.001514196 -0.0311045 0.01841002 0.004621982 -0.03723961 0.02221339 9.97404e-5 -0.03480494 0.02076274 0.00156778 -0.0341103 0.02024626 0.00382471 -0.03480261 0.02076601 -0.00143361 -0.0358209 0.02135223 -0.004700541 -0.02704036 0.01601296 -9.8271e-4 -0.0250563 0.01505964 -0.001731097 -0.02609491 0.01566231 0.001593589 -0.02567762 0.01539868 0.00460422 -0.0201838 0.01272857 -0.001238346 -0.0177232 0.01175713 -1.11332e-4 -0.02372741 0.01431941 1.95436e-4 -0.02175629 0.01345181 0.001660168 -0.01979678 0.01256316 0.003345668 -0.01747536 0.01166689 0.002424061 -0.0148307 0.01073002 -0.002410948 -0.01466441 0.01060599 1.2808e-4 -0.01018279 0.009148657 -3.02042e-5 -0.01214826 0.009754419 -0.001429855 -0.01471418 0.0106604 0.002977073 -0.01188021 0.009728312 0.001360356 -0.006695687 0.008295953 0.00116539 -0.009282827 0.00895822 -5.04117e-5 -0.008696019 0.008706629 0.002875268 -0.003210902 0.007252156 4.87903e-4 -0.00570625 0.007905304 -0.001290857 -0.008153796 0.008570909 -0.002901256 -0.007056117 0.00830549 0.00457412 -0.03139835 0.01865249 0.007426083</float_array>
          <technique_common>
            <accessor source="#right_finger_prox_link-mesh-positions-array" count="129" stride="3">
              <param name="X" type="float"/>
              <param name="Y" type="float"/>
              <param name="Z" type="float"/>
            </accessor>
          </technique_common>
        </source>
        <source id="right_finger_prox_link-mesh-normals">
          <float_array id="right_finger_prox_link-mesh-normals-array" count="774">0.5211367 0.8533933 -0.01168334 -0.06203836 0.003775715 -0.9980666 -0.08213347 0.03246504 -0.9960924 -0.06457424 -0.04858875 -0.9967294 0.1495793 -0.2401108 -0.9591522 0.4125409 0.9108954 0.008924424 0.3089396 0.950855 -0.02076637 0.6170774 -0.7321116 -0.2884929 0.4057176 0.9137594 0.02090775 0.859771 0.04852843 -0.5083689 0.9744693 -0.1291245 -0.1836752 0.9910938 0.1317964 0.01905459 0.4959463 0.8681711 -0.01778548 0.9984856 -0.05481159 0.004736959 -0.9737055 -0.2278054 0.001541554 -0.9643909 -0.2644813 -1.05366e-4 0.584481 0.8104926 -0.03852051 0.07433301 -0.05495595 -0.9957181 0.2676487 0.9624536 -0.04524934 0.3358964 0.9418547 0.009135961 -0.0494402 -0.1399931 0.9889174 0.3308259 0.9436516 0.008714318 0.06679582 0.3582873 -0.9312189 0.05674016 0.1130293 -0.9919703 -0.5423557 -0.8395724 0.03111982 -0.5259758 -0.7064169 -0.4736294 -0.06102418 -0.03784662 0.9974186 0.2550933 -0.3498458 0.9014075 -0.07773804 -0.03142035 0.9964787 -0.09294724 0.07084637 0.9931473 0.4246162 0.9052677 -0.0138452 -0.08627092 0.057976 0.9945834 0.3440217 0.9385572 -0.0275582 -0.3598376 -0.5968009 0.717179 -0.5590552 -0.8062252 0.1935409 0.4811064 0.8766376 0.006567001 -0.9880407 0.1389055 -0.06693899 -0.01551824 0.03308439 0.9993321 0.2814239 0.6977491 0.6587465 0.07934188 0.03601872 0.9961966 0.01794987 0.1418622 -0.9897237 0.4400566 -0.4022932 -0.8028141 0.1329877 0.111148 -0.9848657 0.2661508 0.9632079 0.03734153 0.2195916 0.9754189 0.01837295 0.2474326 0.9689052 1.60058e-4 0.2739397 0.9616425 -0.01417088 0.2384594 0.9703834 0.03864449 0.3313897 0.9094606 -0.2511224 0.2356137 0.9602108 0.1499387 0.2481945 0.9655566 0.0781027 -0.5503779 -0.8224267 0.1438699 0.2577956 0.9659652 -0.02127861 0.5313599 0.8466078 0.03020125 0.3216348 0.9468539 0.004337191 0.3169795 0.9483551 0.01211363 0.3164221 0.9485595 0.01057928 0.4812145 0.8761949 -0.0267415 0.3547359 0.9349665 -3.01354e-4 0.341662 0.9398058 0.005676448 0.3444733 0.9386938 -0.01386016 0.06657117 -0.001771509 -0.9977801 0.4258893 0.9043624 -0.0273292 0.4786309 0.8779935 -0.006312727 0.4536142 0.8911064 -0.01278781 0.4746246 0.8778853 0.06363254 0.4909692 0.8707828 0.02620416 0.5042408 0.8626101 -0.04056102 0.5040048 0.8612943 -0.06443172 -0.9305616 -0.3649414 -0.0295459 0.4973034 0.8602063 0.1128473 -0.548695 0.8352967 0.03483277 0.5921874 0.7177994 0.366167 0.2591932 0.9658238 -0.00185883 -0.04501628 0.9981933 -0.03979676 -0.01060056 0.9948633 -0.1006705 0.4211214 0.905212 -0.05699193 0.5118803 0.8589621 0.01275587 0.4788443 0.8769208 -0.04145103 -0.3324406 -0.9386011 -0.09225618 0.4855387 0.8730551 -0.04502552 0.4851756 0.8732926 -0.0443269 -0.2415759 -0.8064672 -0.5396775 0.2071195 0.9783143 -0.001649975 0.2985911 0.9543608 -0.006237447 0.3942322 0.9183533 0.03476279 0.04919487 -0.08563494 0.9951114 0.3986274 0.9162693 0.03933143 0.4326267 0.8949217 -0.1093127 0.6092824 -0.7098593 0.3533763 0.3284255 0.9445274 -0.002153933 0.4364398 0.8990218 0.03577852 0.4847903 0.8612327 0.1525014 0.3224971 0.946421 -0.0168218 0.5184724 0.8550598 0.007696807 0.3398123 0.935759 -0.09424972 0.3483347 0.9337513 -0.08228993 0.4901865 -0.8640999 -0.1142303 0.4230293 0.9055508 -0.03199827 0.2546631 0.9669394 -0.01323223 0.2575572 0.9485439 -0.1841981 0.4400774 0.8978468 -0.01424783 0.3165228 0.9484797 -0.01413482 -0.01375317 0.998351 0.0557332 0.5333608 0.8458687 -0.005710482 -0.3605763 0.9327186 -0.004552781 -0.5746847 0.8172932 0.04206526 0.2564618 0.9657295 0.03992378 0.5600535 0.8280777 -0.02504575 0.9617599 -0.04787367 0.2696778 0.5132039 0.8582171 0.00922805 0.01457101 -0.008761167 -0.9998555 0.3202076 0.9472261 0.01516073 0.5173953 0.8556156 0.01497954 -0.4413389 -0.8973402 8.84038e-4 0.348676 0.9371433 0.01369589 0.4382897 0.8986688 0.01722192 0.3523033 0.9358853 -0.001110434 0.5112602 0.859425 0.001337707 0.3728494 0.9269886 0.0409345 0.3661512 0.9305516 0.002663433 0.5403198 0.8414395 0.005845785 0.350574 0.936258 0.02278071 0.3432076 0.9392577 0.001883506 0.3933879 0.9191229 -0.02142691 0.5449026 0.8383583 -0.01538705 0.2795718 0.9592935 -0.03994387 0.2225595 0.9748021 -0.01510816 -0.9891537 0.1276769 0.07262009 0.4898421 0.8714234 -0.02600085 0.3549479 0.9347653 -0.01502645 0.3017193 0.9533311 0.01119905 0.3846882 0.9230188 -0.007172822 0.4164798 0.904981 0.08691406 0.5003418 0.8656033 -0.0197277 0.3237381 0.9461465 7.911e-4 0.3031643 0.9528483 0.01309818 0.3808712 0.9243188 0.02391743 -0.6450598 0.7641322 -7.56971e-5 0.5105791 0.8595888 -0.02040195 0.2768915 0.9606747 -0.02086365 0.3105384 0.950362 0.01944345 0.1268441 0.9918453 0.01239949 0.2406532 0.9699746 0.03514677 0.5069878 0.8619179 -0.007803797 0.2103576 0.9740952 0.08299583 -0.027098 0.9988507 -0.03953635 -0.3839486 0.8956397 0.2245288 0.3081845 0.9510425 -0.02325016 0.2242162 0.9740769 0.03002423 -0.06980669 0.03983062 -0.996765 0.6766408 0.0787273 -0.7320923 0.4033277 0.9055384 0.1316322 0.5006012 0.8651284 -0.0308454 0.2564826 0.9478642 -0.18913 0.09253638 0.05316448 0.994289 -0.09443455 0.07048285 0.9930329 0.05602604 0.2241539 0.972942 0.3174171 0.284995 -0.904447 0.4653097 0.8851479 -4.19974e-4 0.2281113 0.9722862 -0.05123233 0.2731028 0.9617022 -0.02331745 0.3192167 0.9476627 -0.006021142 0.2332873 0.9719561 0.02963614 0.3677366 0.9296423 -0.02313125 0.4301384 0.9020035 -0.03702485 0.3338709 0.942309 0.02417105 0.2425248 0.9701324 -0.005011618 0.3978539 0.9172523 0.01899164 0.2939367 0.9556927 -0.01590299 0.2130333 0.9736908 -0.08088952 0.5266987 0.8497657 0.02206152 0.4564704 0.8893334 0.02685356 0.3595237 0.933134 -0.001913845 0.3146685 0.9491443 -0.01042914 0.2835772 0.9549195 0.08782255 0.4367468 0.899421 -0.01715344 0.407653 0.9131041 -0.007756531 0.4140787 0.91024 -0.001470267 0.3214669 0.9441744 0.07206904 0.5331301 0.8460161 -0.005407869 0.5098197 0.8602806 -0.001152753 0.377968 0.9253755 0.02864527 0.3095565 0.9499671 -0.04168349 0.5566495 0.8299797 0.03570723 0.4474717 0.8942785 -0.005927622 0.4140463 0.9062266 0.08555185 0.4225429 0.9061117 -0.0204727 0.5588454 0.8290824 0.01773047 0.5287764 0.8477702 -0.04100579 0.2899693 0.955112 0.0606532 0.5025202 0.8629297 0.05316007 0.3210816 0.9467927 0.02213728 0.5331456 0.8460224 0.001340091 0.5036735 0.8619574 0.05781471 -0.07442587 -0.04455327 -0.9962309 0.4071857 0.9133186 -0.007000148 0.3078883 0.9511982 -0.02066111 0.4043406 0.9144276 0.01819211 0.5065227 0.8621448 0.0118826 0.999518 -0.004508793 0.03071439 0.6858734 0.727711 -0.003805637 0.2754864 0.9610652 -0.02147346 0.3224198 0.9463966 -0.01946783 0.07896798 -0.01808458 0.9967131 0.3210078 0.947056 -0.006243348 0.4143764 0.9097715 -0.02466183 0.2992982 0.949654 -0.09261721 0.256543 0.966521 -0.004778265 0.5193531 0.8545011 0.0100215 0.4640862 0.8856912 0.01323348 0.3450961 0.9384446 -0.01518106 0.3409394 0.9398746 -0.01990646 0.09418731 -0.0660181 -0.9933632 0.5582835 0.8294962 0.01599496 -0.5421299 -0.8383595 0.05699616 -0.7698209 0.6294082 0.1059301 0.2632421 0.9647281 -0.001860857 0.4790344 0.8777598 -0.008001148 0.2611721 0.9652901 0.002028942 0.320315 0.9472718 0.008635044 0.04123216 -0.0260818 0.9988092 0.6061783 -0.7941926 -0.04249906 0.3233042 0.9462434 -0.009903788 0.3388829 0.940786 0.008953094 0.4711741 0.882022 0.005681693 0.8625817 -0.5055283 0.01984786 0.4914383 0.8709017 -0.00434792 0.476907 0.8788856 -0.01095056 0.5254612 0.8507943 -0.006289064 0.5207955 0.8536397 0.008448958 0.9955813 0.09346878 0.009020149 0.2881777 0.9575717 0.003182411 -0.2460704 -0.2511712 -0.9361424 0.3058003 0.952009 -0.01285052 0.5288773 0.8486049 -0.01258802 -0.4379482 -0.8989161 -0.01230144 0.3510399 0.9349294 0.0517506 0.4792264 0.8773868 0.02312326 0.3445362 0.9386974 -0.01191955 0.3922497 0.9174511 -0.06651204 0.4145748 0.9100128 -0.002166748 0.533711 0.8454481 0.01924091 0.3349034 0.9422525 3.92881e-4 0.3767275 0.9249805 -0.04987663 0.5221636 0.8526337 -0.01900297 0.2855611 0.95833 -0.007653534 0.2690825 0.9601426 0.07563573 -0.9876763 0.1560323 -0.01223081 0.4177208 0.908316 -0.02171379 0.2284242 0.9636991 -0.1382262 0.3996663 0.9157199 0.0415219 0.4843348 0.8747771 0.01358866 0.366258 0.9305103 0.002394497 -0.6902401 0.7234386 0.01432633 0.5187049 0.8547139 -0.02023756 0.5054743 0.8628374 -0.002739787 0.5312488 0.8472144 -0.001675307</float_array>
          <technique_common>
            <accessor source="#right_finger_prox_link-mesh-normals-array" count="258" stride="3">
              <param name="X" type="float"/>
              <param name="Y" type="float"/>
              <param name="Z" type="float"/>
            </accessor>
          </technique_common>
        </source>
        <vertices id="right_finger_prox_link-mesh-vertices">
          <input semantic="POSITION" source="#right_finger_prox_link-mesh-positions"/>
        </vertices>
        <triangles count="258">
          <input semantic="VERTEX" source="#right_finger_prox_link-mesh-vertices" offset="0"/>
          <input semantic="NORMAL" source="#right_finger_prox_link-mesh-normals" offset="1"/>
          <p>52 0 53 0 54 0 82 1 0 1 69 1 16 2 0 2 82 2 15 3 7 3 16 3 7 4 15 4 19 4 111 5 109 5 74 5 120 6 118 6 116 6 19 7 4 7 7 7 78 8 74 8 109 8 11 9 10 9 3 9 17 10 3 10 10 10 18 11 11 11 2 11 101 12 93 12 94 12 2 13 3 13 4 13 8 14 1 14 21 14 21 15 1 15 5 15 24 16 15 16 16 16 19 17 15 17 14 17 125 18 122 18 121 18 81 19 77 19 85 19 5 20 7 20 4 20 85 21 80 21 81 21 13 22 82 22 18 22 18 23 14 23 13 23 6 24 9 24 0 24 6 25 0 25 7 25 25 26 24 26 27 26 17 27 25 27 27 27 27 28 24 28 28 28 24 29 35 29 28 29 113 30 44 30 43 30 40 31 28 31 35 31 53 32 95 32 54 32 20 33 28 33 22 33 20 34 27 34 28 34 93 35 53 35 94 35 21 36 22 36 8 36 26 37 23 37 24 37 35 38 10 38 11 38 10 39 26 39 17 39 10 40 23 40 26 40 1 41 56 41 58 41 1 42 58 42 69 42 127 43 30 43 31 43 127 44 123 44 33 44 33 45 123 45 36 45 124 46 31 46 11 46 11 47 31 47 30 47 30 48 34 48 11 48 11 49 34 49 33 49 35 50 11 50 33 50 35 51 32 51 36 51 32 52 33 52 36 52 102 53 98 53 101 53 35 54 36 54 39 54 39 55 40 55 35 55 38 56 40 56 39 56 107 57 42 57 111 57 119 58 41 58 38 58 43 59 41 59 113 59 79 60 85 60 77 60 9 61 69 61 0 61 44 62 42 62 45 62 102 63 52 63 51 63 108 64 45 64 42 64 47 65 45 65 48 65 99 66 50 66 49 66 47 67 48 67 128 67 128 68 48 68 50 68 26 69 14 69 17 69 52 70 12 70 128 70 17 71 15 71 25 71 54 72 12 72 52 72 86 73 126 73 88 73 95 74 55 74 12 74 57 75 60 75 56 75 58 76 60 76 61 76 59 77 104 77 61 77 68 78 72 78 69 78 58 79 61 79 104 79 58 80 104 80 62 80 62 81 66 81 58 81 58 82 66 82 68 82 88 83 125 83 29 83 83 84 118 84 117 84 70 85 71 85 72 85 22 86 40 86 8 86 69 87 72 87 71 87 69 88 71 88 75 88 27 89 3 89 17 89 38 90 37 90 119 90 70 91 75 91 71 91 75 92 70 92 76 92 115 93 84 93 85 93 67 94 68 94 63 94 75 95 81 95 82 95 82 96 81 96 80 96 24 97 13 97 26 97 107 98 106 98 105 98 86 99 90 99 83 99 89 100 18 100 90 100 72 101 106 101 74 101 18 102 89 102 29 102 29 103 89 103 87 103 97 104 63 104 65 104 55 105 91 105 56 105 91 106 57 106 56 106 91 107 55 107 92 107 46 108 96 108 49 108 19 109 2 109 4 109 59 110 64 110 104 110 20 111 21 111 3 111 120 112 119 112 37 112 104 113 65 113 62 113 5 114 3 114 21 114 43 115 38 115 41 115 73 116 105 116 106 116 114 117 116 117 110 117 103 118 100 118 101 118 91 119 100 119 64 119 109 120 113 120 110 120 63 121 62 121 65 121 115 122 110 122 116 122 46 123 107 123 105 123 77 124 78 124 79 124 128 125 99 125 51 125 121 126 124 126 125 126 86 127 89 127 90 127 9 128 5 128 1 128 48 129 46 129 50 129 114 130 113 130 41 130 90 131 80 131 83 131 36 132 83 132 117 132 47 133 43 133 44 133 98 134 49 134 96 134 117 135 120 135 36 135 36 136 120 136 37 136 109 137 79 137 78 137 12 138 1 138 8 138 67 139 96 139 105 139 126 140 83 140 122 140 123 141 122 141 36 141 36 142 122 142 83 142 31 143 122 143 123 143 103 144 64 144 100 144 31 145 121 145 122 145 56 146 12 146 55 146 56 147 60 147 58 147 11 148 18 148 29 148 11 149 29 149 124 149 82 150 13 150 16 150 14 151 18 151 19 151 75 152 82 152 69 152 69 153 58 153 68 153 90 154 18 154 82 154 40 155 12 155 8 155 24 156 23 156 35 156 10 157 35 157 23 157 40 158 47 158 128 158 128 159 12 159 40 159 29 160 87 160 88 160 86 161 88 161 87 161 80 162 84 162 83 162 125 163 124 163 29 163 76 164 77 164 75 164 76 165 70 165 78 165 116 166 118 166 115 166 123 167 127 167 31 167 74 168 70 168 72 168 30 169 127 169 33 169 34 170 30 170 33 170 63 171 68 171 66 171 106 172 111 172 74 172 114 173 110 173 113 173 36 174 37 174 39 174 35 175 33 175 32 175 60 176 59 176 61 176 112 177 111 177 42 177 113 178 112 178 42 178 57 179 59 179 60 179 97 180 65 180 103 180 96 181 97 181 98 181 107 182 46 182 108 182 91 183 64 183 57 183 49 184 50 184 46 184 48 185 45 185 108 185 45 186 47 186 44 186 93 187 100 187 92 187 94 188 102 188 101 188 51 189 99 189 102 189 55 190 93 190 92 190 51 191 52 191 128 191 12 192 54 192 95 192 101 193 97 193 103 193 52 194 94 194 53 194 16 195 7 195 0 195 111 196 112 196 109 196 120 197 117 197 118 197 78 198 70 198 74 198 101 199 100 199 93 199 2 200 11 200 3 200 24 201 25 201 15 201 125 202 126 202 122 202 81 203 75 203 77 203 5 204 6 204 7 204 85 205 84 205 80 205 113 206 42 206 44 206 53 207 55 207 95 207 93 208 55 208 53 208 102 209 99 209 98 209 107 210 108 210 42 210 119 211 114 211 41 211 79 212 115 212 85 212 9 213 1 213 69 213 102 214 94 214 52 214 26 215 13 215 14 215 17 216 14 216 15 216 86 217 83 217 126 217 68 218 73 218 72 218 88 219 126 219 125 219 83 220 84 220 118 220 22 221 28 221 40 221 27 222 20 222 3 222 38 223 39 223 37 223 115 224 118 224 84 224 67 225 73 225 68 225 24 226 16 226 13 226 107 227 111 227 106 227 72 228 73 228 106 228 97 229 67 229 63 229 46 230 105 230 96 230 19 231 18 231 2 231 59 232 57 232 64 232 20 233 22 233 21 233 120 234 116 234 119 234 104 235 103 235 65 235 5 236 4 236 3 236 43 237 40 237 38 237 73 238 67 238 105 238 114 239 119 239 116 239 91 240 92 240 100 240 109 241 112 241 113 241 63 242 66 242 62 242 115 243 79 243 110 243 77 244 76 244 78 244 128 245 50 245 99 245 121 246 31 246 124 246 86 247 87 247 89 247 9 248 6 248 5 248 48 249 108 249 46 249 90 250 82 250 80 250 47 251 40 251 43 251 98 252 99 252 49 252 109 253 110 253 79 253 12 254 56 254 1 254 67 255 97 255 96 255 103 256 104 256 64 256 101 257 98 257 97 257</p>
        </triangles>
      </mesh>
    </geometry>
  </library_geometries>
  <library_visual_scenes>
    <visual_scene id="Scene" name="Scene">
      <node id="right_finger_prox_link" name="right_finger_prox_link" type="NODE">
        <matrix sid="transform">1 0 0 0 0 1 0 0 0 0 1 0 0 0 0 1</matrix>
        <instance_geometry url="#right_finger_prox_link-mesh" name="right_finger_prox_link"/>
      </node>
      <node id="Camera" name="Camera" type="NODE">
        <matrix sid="transform">0.6859207 -0.3240135 0.6515582 7.358891 0.7276763 0.3054208 -0.6141704 -6.925791 0 0.8953956 0.4452714 4.958309 0 0 0 1</matrix>
        <instance_camera url="#Camera-camera"/>
      </node>
      <node id="Light" name="Light" type="NODE">
        <matrix sid="transform">-0.2908646 -0.7711008 0.5663932 4.076245 0.9551712 -0.1998834 0.2183912 1.005454 -0.05518906 0.6045247 0.7946723 5.903862 0 0 0 1</matrix>
        <instance_light url="#Light-light"/>
      </node>
    </visual_scene>
  </library_visual_scenes>
  <scene>
    <instance_visual_scene url="#Scene"/>
  </scene>
</COLLADA>